<svg xmlns="http://www.w3.org/2000/svg" width="179.496" height="60" viewBox="0 0 179.496 60">
  <g id="Download_on_the_App_Store_Badge_US-UK_RGB_blk_092917" transform="translate(0 0)">
    <g id="Group_71" data-name="Group 71" transform="translate(0 0)">
      <g id="Group_69" data-name="Group 69">
        <path id="Path_128" data-name="Path 128" d="M165.2,0H14.3c-.55,0-1.093,0-1.642,0-.459,0-.915.012-1.378.019A19.822,19.822,0,0,0,8.276.287a10,10,0,0,0-2.851.94A9.657,9.657,0,0,0,3,3,9.388,9.388,0,0,0,1.229,5.427,9.9,9.9,0,0,0,.292,8.282a19.49,19.49,0,0,0-.269,3c-.014.46-.015.921-.023,1.381V47.338c.007.466.009.917.023,1.383a19.488,19.488,0,0,0,.269,3,9.881,9.881,0,0,0,.937,2.856A9.312,9.312,0,0,0,3,57a9.412,9.412,0,0,0,2.428,1.768,10.051,10.051,0,0,0,2.851.946,20.181,20.181,0,0,0,3.006.265c.464.01.919.016,1.378.016.549,0,1.092,0,1.642,0H165.2c.539,0,1.087,0,1.626,0,.457,0,.926-.006,1.383-.016a19.916,19.916,0,0,0,3-.265,10.206,10.206,0,0,0,2.862-.946A9.416,9.416,0,0,0,176.5,57a9.593,9.593,0,0,0,1.772-2.421,9.907,9.907,0,0,0,.929-2.856,20.262,20.262,0,0,0,.278-3c.006-.466.006-.917.006-1.383.012-.545.012-1.087.012-1.641V14.3c0-.549,0-1.094-.012-1.638,0-.46,0-.921-.006-1.381a20.26,20.26,0,0,0-.278-3,9.926,9.926,0,0,0-.929-2.855,9.7,9.7,0,0,0-4.2-4.2,10.152,10.152,0,0,0-2.862-.94,19.566,19.566,0,0,0-3-.265c-.457-.007-.926-.016-1.383-.019-.539,0-1.087,0-1.626,0Z" transform="translate(0 0)" fill="#a6a6a6"/>
        <path id="Path_129" data-name="Path 129" d="M12.228,58.214c-.457,0-.9-.006-1.356-.016a19.035,19.035,0,0,1-2.8-.244,8.827,8.827,0,0,1-2.485-.821,8.107,8.107,0,0,1-2.1-1.524,7.976,7.976,0,0,1-1.53-2.093,8.575,8.575,0,0,1-.814-2.484,18.6,18.6,0,0,1-.25-2.811C.885,47.9.873,46.851.873,46.851V12.222S.886,11.185.9,10.881a18.536,18.536,0,0,1,.248-2.806,8.625,8.625,0,0,1,.815-2.492,8.055,8.055,0,0,1,1.522-2.1,8.346,8.346,0,0,1,2.1-1.533,8.735,8.735,0,0,1,2.479-.815A18.883,18.883,0,0,1,10.876.893L12.229.875H166.35l1.369.019a18.581,18.581,0,0,1,2.787.244,8.909,8.909,0,0,1,2.506.821,8.387,8.387,0,0,1,3.622,3.628,8.636,8.636,0,0,1,.8,2.472,19.472,19.472,0,0,1,.261,2.829c0,.425,0,.881,0,1.334.012.562.012,1.1.012,1.637V45.232c0,.545,0,1.076-.012,1.612,0,.487,0,.934-.006,1.394a19.076,19.076,0,0,1-.256,2.778,8.6,8.6,0,0,1-.81,2.5,8.214,8.214,0,0,1-1.523,2.077,8.117,8.117,0,0,1-2.1,1.533,8.793,8.793,0,0,1-2.5.824,18.817,18.817,0,0,1-2.8.244c-.439.01-.9.016-1.346.016l-1.626,0Z" transform="translate(0.455 0.456)"/>
      </g>
      <g id="_Group_" data-name="&lt;Group&gt;" transform="translate(15.163 12.788)">
        <g id="_Group_2" data-name="&lt;Group&gt;">
          <g id="_Group_3" data-name="&lt;Group&gt;">
            <path id="_Path_" data-name="&lt;Path&gt;" d="M32.473,23.6a7.525,7.525,0,0,1,3.583-6.314A7.7,7.7,0,0,0,29.987,14c-2.554-.268-5.029,1.528-6.33,1.528-1.326,0-3.33-1.5-5.487-1.457a8.083,8.083,0,0,0-6.8,4.148c-2.941,5.092-.747,12.575,2.07,16.691,1.409,2.015,3.057,4.267,5.212,4.187,2.109-.087,2.9-1.345,5.443-1.345,2.522,0,3.261,1.345,5.461,1.294,2.263-.037,3.689-2.024,5.049-4.059a16.67,16.67,0,0,0,2.309-4.7,7.272,7.272,0,0,1-4.439-6.69Z" transform="translate(-9.972 -5.985)" fill="#fff"/>
            <path id="_Path_2" data-name="&lt;Path&gt;" d="M23.728,14.028A7.409,7.409,0,0,0,25.422,8.72a7.538,7.538,0,0,0-4.878,2.524,7.05,7.05,0,0,0-1.739,5.111,6.233,6.233,0,0,0,4.922-2.327Z" transform="translate(-5.38 -8.72)" fill="#fff"/>
          </g>
        </g>
        <g id="Group_70" data-name="Group 70" transform="translate(34.718 13.915)">
          <path id="Path_130" data-name="Path 130" d="M46.4,31.858H39.2l-1.729,5.1H34.427l6.818-18.883h3.167L51.23,36.961h-3.1ZM39.95,29.5h5.705l-2.813-8.283h-.079Z" transform="translate(-34.427 -17.763)" fill="#fff"/>
          <path id="Path_131" data-name="Path 131" d="M59.6,28.377c0,4.278-2.29,7.027-5.745,7.027A4.667,4.667,0,0,1,49.523,33h-.065v6.819H46.631V21.493h2.735v2.29h.052A4.884,4.884,0,0,1,53.8,21.349C57.3,21.349,59.6,24.111,59.6,28.377Zm-2.9,0c0-2.787-1.44-4.62-3.638-4.62-2.159,0-3.612,1.871-3.612,4.62,0,2.774,1.452,4.632,3.612,4.632,2.2,0,3.638-1.819,3.638-4.632Z" transform="translate(-28.073 -16.062)" fill="#fff"/>
          <path id="Path_132" data-name="Path 132" d="M69.565,28.377c0,4.278-2.29,7.027-5.745,7.027A4.667,4.667,0,0,1,59.488,33h-.065v6.819H56.6V21.493h2.735v2.29h.052a4.884,4.884,0,0,1,4.384-2.434C67.262,21.349,69.565,24.111,69.565,28.377Zm-2.9,0c0-2.787-1.44-4.62-3.638-4.62-2.159,0-3.612,1.871-3.612,4.62,0,2.774,1.452,4.632,3.612,4.632,2.2,0,3.638-1.819,3.638-4.632Z" transform="translate(-22.885 -16.062)" fill="#fff"/>
          <path id="Path_133" data-name="Path 133" d="M72.7,31.808c.209,1.873,2.029,3.1,4.514,3.1,2.382,0,4.1-1.23,4.1-2.918,0-1.466-1.034-2.343-3.481-2.945l-2.447-.59c-3.467-.838-5.077-2.459-5.077-5.091,0-3.258,2.839-5.5,6.871-5.5,3.99,0,6.726,2.238,6.818,5.5H81.142c-.171-1.884-1.729-3.022-4.005-3.022S73.3,21.5,73.3,23.171c0,1.335.995,2.121,3.429,2.722l2.08.511c3.874.916,5.484,2.473,5.484,5.235,0,3.533-2.814,5.745-7.29,5.745-4.188,0-7.015-2.161-7.2-5.576Z" transform="translate(-16.007 -17.871)" fill="#fff"/>
          <path id="Path_134" data-name="Path 134" d="M85,19.3v3.258h2.618V24.8H85v7.59c0,1.179.524,1.729,1.675,1.729a8.831,8.831,0,0,0,.93-.065v2.225a7.761,7.761,0,0,1-1.57.131c-2.787,0-3.874-1.047-3.874-3.717V24.8h-2V22.558h2V19.3Z" transform="translate(-10.616 -17.127)" fill="#fff"/>
          <path id="Path_135" data-name="Path 135" d="M86.065,28.385c0-4.332,2.551-7.054,6.53-7.054s6.531,2.722,6.531,7.054-2.526,7.054-6.531,7.054S86.065,32.728,86.065,28.385Zm10.181,0c0-2.971-1.362-4.725-3.652-4.725s-3.65,1.767-3.65,4.725c0,2.983,1.36,4.724,3.65,4.724s3.652-1.74,3.652-4.724Z" transform="translate(-7.543 -16.07)" fill="#fff"/>
          <path id="Path_136" data-name="Path 136" d="M96.186,21.493h2.7v2.343h.065a3.284,3.284,0,0,1,3.312-2.487,4.358,4.358,0,0,1,.968.105V24.1a3.951,3.951,0,0,0-1.27-.171,2.848,2.848,0,0,0-2.945,3.167V35.26H96.186Z" transform="translate(-2.273 -16.062)" fill="#fff"/>
          <path id="Path_137" data-name="Path 137" d="M113.636,31.224c-.38,2.5-2.814,4.214-5.928,4.214-4.005,0-6.491-2.683-6.491-6.988s2.5-7.119,6.372-7.119c3.809,0,6.2,2.617,6.2,6.791v.968H104.07v.171a3.586,3.586,0,0,0,3.7,3.9,3.115,3.115,0,0,0,3.179-1.936Zm-9.553-4.109h6.883a3.311,3.311,0,0,0-3.377-3.494,3.485,3.485,0,0,0-3.506,3.494Z" transform="translate(0.346 -16.07)" fill="#fff"/>
        </g>
      </g>
    </g>
    <g id="_Group_4" data-name="&lt;Group&gt;" transform="translate(51.772 12.623)">
      <g id="Group_72" data-name="Group 72">
        <path id="Path_138" data-name="Path 138" d="M38.948,8.735a4.014,4.014,0,0,1,4.269,4.508c0,2.9-1.567,4.565-4.269,4.565H35.671V8.735Zm-1.868,7.79h1.711a2.853,2.853,0,0,0,2.992-3.263,2.86,2.86,0,0,0-2.992-3.245H37.08Z" transform="translate(-35.671 -8.287)" fill="#fff"/>
        <path id="Path_139" data-name="Path 139" d="M41.686,13.661a3.244,3.244,0,1,1,6.458,0,3.244,3.244,0,1,1-6.458,0Zm5.068,0c0-1.484-.667-2.352-1.837-2.352s-1.835.868-1.835,2.352.661,2.357,1.835,2.357S46.754,15.151,46.754,13.661Z" transform="translate(-32.547 -7.567)" fill="#fff"/>
        <path id="Path_140" data-name="Path 140" d="M54.179,17.042h-1.4L51.362,12h-.107l-1.409,5.043H48.457l-1.887-6.847H47.94l1.227,5.225h.1l1.408-5.225h1.3L53.38,15.42h.107l1.221-5.225h1.351Z" transform="translate(-29.997 -7.522)" fill="#fff"/>
        <path id="Path_141" data-name="Path 141" d="M53.854,10.242h1.3V11.33h.1A2.05,2.05,0,0,1,57.3,10.11a2.227,2.227,0,0,1,2.37,2.547V17.09H58.317V13c0-1.1-.478-1.648-1.478-1.648A1.571,1.571,0,0,0,55.2,13.084V17.09H53.854Z" transform="translate(-26.204 -7.569)" fill="#fff"/>
        <path id="Path_142" data-name="Path 142" d="M59.094,8.437h1.351v9.52H59.094Z" transform="translate(-23.476 -8.437)" fill="#fff"/>
        <path id="Path_143" data-name="Path 143" d="M61.223,13.661a3.244,3.244,0,1,1,6.459,0,3.245,3.245,0,1,1-6.459,0Zm5.068,0c0-1.484-.667-2.352-1.837-2.352s-1.835.868-1.835,2.352.661,2.357,1.835,2.357S66.291,15.151,66.291,13.661Z" transform="translate(-22.375 -7.567)" fill="#fff"/>
        <path id="Path_144" data-name="Path 144" d="M66.4,15.151c0-1.233.918-1.943,2.547-2.044L70.8,13v-.591c0-.723-.478-1.132-1.4-1.132-.754,0-1.277.277-1.427.761H66.665c.138-1.176,1.244-1.931,2.8-1.931,1.717,0,2.685.855,2.685,2.3v4.678h-1.3v-.962H70.74A2.3,2.3,0,0,1,68.683,17.2,2.068,2.068,0,0,1,66.4,15.151Zm4.4-.585v-.572L69.13,14.1c-.943.063-1.371.384-1.371.988s.535.975,1.27.975a1.614,1.614,0,0,0,1.773-1.5Z" transform="translate(-19.672 -7.567)" fill="#fff"/>
        <path id="Path_145" data-name="Path 145" d="M71.348,14.531C71.348,12.367,72.46,11,74.19,11a2.257,2.257,0,0,1,2.1,1.2h.1V8.437h1.351v9.52H76.448V16.876h-.107a2.377,2.377,0,0,1-2.15,1.195C72.449,18.07,71.348,16.7,71.348,14.531Zm1.4,0c0,1.452.685,2.326,1.83,2.326s1.843-.887,1.843-2.32-.711-2.326-1.843-2.326-1.83.88-1.83,2.32Z" transform="translate(-17.096 -8.437)" fill="#fff"/>
        <path id="Path_146" data-name="Path 146" d="M79.235,13.661a3.244,3.244,0,1,1,6.458,0,3.244,3.244,0,1,1-6.458,0Zm5.068,0c0-1.484-.667-2.352-1.837-2.352s-1.835.868-1.835,2.352.661,2.357,1.835,2.357S84.3,15.151,84.3,13.661Z" transform="translate(-12.998 -7.567)" fill="#fff"/>
        <path id="Path_147" data-name="Path 147" d="M84.669,10.242h1.3V11.33h.1a2.05,2.05,0,0,1,2.043-1.22,2.227,2.227,0,0,1,2.37,2.547V17.09H89.133V13c0-1.1-.478-1.648-1.478-1.648a1.571,1.571,0,0,0-1.635,1.735V17.09H84.669Z" transform="translate(-10.16 -7.569)" fill="#fff"/>
        <path id="Path_148" data-name="Path 148" d="M94.351,9.074V10.81h1.484v1.138H94.351v3.521c0,.717.3,1.031.968,1.031a4.511,4.511,0,0,0,.515-.031v1.126a4.433,4.433,0,0,1-.735.069c-1.5,0-2.1-.529-2.1-1.849V11.948H91.911V10.81H93V9.074Z" transform="translate(-6.39 -8.105)" fill="#fff"/>
        <path id="Path_149" data-name="Path 149" d="M95.7,8.437h1.339V12.21h.107a2.107,2.107,0,0,1,2.088-1.227,2.256,2.256,0,0,1,2.358,2.553v4.421h-1.353V13.87c0-1.094-.509-1.648-1.464-1.648a1.6,1.6,0,0,0-1.724,1.736v4H95.7Z" transform="translate(-4.415 -8.437)" fill="#fff"/>
        <path id="Path_150" data-name="Path 150" d="M106.87,15.239A2.78,2.78,0,0,1,103.9,17.22a3.11,3.11,0,0,1-3.163-3.534,3.158,3.158,0,0,1,3.157-3.577c1.905,0,3.055,1.3,3.055,3.452v.471h-4.835v.076a1.81,1.81,0,0,0,1.824,1.962,1.641,1.641,0,0,0,1.629-.83Zm-4.754-2.207h3.459a1.652,1.652,0,0,0-1.685-1.774,1.751,1.751,0,0,0-1.773,1.774Z" transform="translate(-1.808 -7.567)" fill="#fff"/>
      </g>
    </g>
  </g>
</svg>
