<svg xmlns="http://www.w3.org/2000/svg" width="34.875" height="34.875" viewBox="0 0 34.875 34.875">
  <path id="Icon_awesome-chevron-circle-right" data-name="Icon awesome-chevron-circle-right" d="M18,.563A17.438,17.438,0,1,1,.563,18,17.434,17.434,0,0,1,18,.563ZM26.009,16.8,16.481,7.277a1.681,1.681,0,0,0-2.384,0l-1.2,1.2a1.681,1.681,0,0,0,0,2.384L20.046,18,12.9,25.144a1.681,1.681,0,0,0,0,2.384l1.2,1.2a1.681,1.681,0,0,0,2.384,0L26.009,19.2A1.689,1.689,0,0,0,26.009,16.8Z" transform="translate(-0.563 -0.563)" fill="#29339b"/>
</svg>
