<svg xmlns="http://www.w3.org/2000/svg" xmlns:xlink="http://www.w3.org/1999/xlink" width="1832.062" height="1054.327" viewBox="0 0 1832.062 1054.327">
  <defs>
    <linearGradient id="linear-gradient" x1="1" y1="0.317" x2="0.087" y2="0.873" gradientUnits="objectBoundingBox">
      <stop offset="0" stop-color="#da3c0d"/>
      <stop offset="1" stop-color="#f66135"/>
    </linearGradient>
  </defs>
  <g id="Group_334" data-name="Group 334" transform="translate(30.024 -204.606)">
    <path id="Path_631" data-name="Path 631" d="M218.493-32.821c252-224,562-88,558,236s-210,430-606,388-450,394-820,246-474-628,96-520S-33.507,191.179,218.493-32.821Z" transform="translate(1025.507 347.821)" fill="url(#linear-gradient)"/>
    <path id="Path_53" data-name="Path 53" d="M-669.937,943.115c0-8.3,5.531-13.83,13.829-13.83s13.83,5.532,15.21,13.83l12.448,116.172c5.532,81.6-5.532,96.811-30.42,118.938-12.448,9.681-23.511,13.829-22.128,30.42l16.6,320.857c1.383,22.127-13.806,49.776-44.243,49.783s-45.655-27.643-44.272-49.776l16.6-320.857c1.383-16.6-9.681-20.746-22.128-30.42-24.894-22.128-35.958-37.342-30.42-118.938l12.448-116.172c1.383-8.3,6.915-13.83,15.21-13.83s13.83,5.532,13.83,13.83l-4.15,124.471c0,13.83,5.551,19.362,13.83,19.362s13.829-5.531,13.829-19.362l1.383-124.471c0-8.3,5.556-13.83,13.843-13.83s13.818,5.532,13.818,13.83l1.383,124.471c0,13.83,5.532,19.362,13.83,19.362s13.829-5.531,13.829-19.362Z" transform="matrix(0.259, 0.966, -0.966, 0.259, 1699.984, 1455.871)" fill="#fff"/>
  </g>
</svg>
