<svg xmlns="http://www.w3.org/2000/svg" width="30" height="30" viewBox="0 0 30 30">
  <g id="Group_86" data-name="Group 86" transform="translate(-469 -2602)">
    <circle id="Ellipse_146" data-name="Ellipse 146" cx="15" cy="15" r="15" transform="translate(469 2602)" fill="#fff"/>
    <g id="Group_79" data-name="Group 79" transform="translate(-332.115 748.2)">
      <g id="Group_78" data-name="Group 78" transform="translate(801.115 1853.8)">
        <path id="Path_626" data-name="Path 626" d="M816.115,1883.8a15,15,0,1,0-15-15A15,15,0,0,0,816.115,1883.8Zm-1.072-23.571a1.071,1.071,0,0,1,2.143,0v8.057l4.955,3.964a1.071,1.071,0,0,1-.67,1.907,1.054,1.054,0,0,1-.67-.236l-5.357-4.286a1.075,1.075,0,0,1-.4-.836v-8.571Z" transform="translate(-801.115 -1853.8)" fill="#29339b"/>
      </g>
    </g>
  </g>
</svg>
