<svg xmlns="http://www.w3.org/2000/svg" xmlns:xlink="http://www.w3.org/1999/xlink" width="943.526" height="934.104" viewBox="0 0 943.526 934.104">
  <defs>
    <linearGradient id="linear-gradient" x1="0.988" y1="0.581" x2="0.01" y2="0.468" gradientUnits="objectBoundingBox">
      <stop offset="0" stop-color="#da3c0d"/>
      <stop offset="1" stop-color="#f66135"/>
    </linearGradient>
  </defs>
  <path id="Path_633" data-name="Path 633" d="M241.947-33.7C424.672,170.753,998.648,169.5,694.54,428.15S464.223,330.035,205.277,322.366,59.222-238.146,241.947-33.7Z" transform="matrix(-0.743, 0.669, -0.669, -0.743, 930.329, 352.24)" fill="url(#linear-gradient)"/>
  <path id="knife" d="M85.555,0C55.893,0,41.066,26.969,42.405,48.531l9.852,191.587H17.13c-24.013,0-24.736,224.291,10.405,333.73C41.768,618.171,62.592,650,85.56,650c9.552,0,20.648-7.459,20.648-21.739l12.65-388.142,9.847-191.587C130.044,26.969,115.216,0,85.555,0Z" transform="matrix(-0.259, -0.966, 0.966, -0.259, 172.677, 598.369)" fill="#fff"/>
</svg>
