<svg xmlns="http://www.w3.org/2000/svg" xmlns:xlink="http://www.w3.org/1999/xlink" width="204.629" height="74.219" viewBox="0 0 204.629 74.219">
  <defs>
    <linearGradient id="linear-gradient" x1="0.528" y1="0.995" x2="0.51" y2="0.008" gradientUnits="objectBoundingBox">
      <stop offset="0" stop-color="#da3c0d"/>
      <stop offset="1" stop-color="#f66135"/>
    </linearGradient>
  </defs>
  <path id="Path_53" data-name="Path 53" d="M37.025,4.255A4.02,4.02,0,0,1,41.28,0c2.553,0,4.255,1.7,4.68,4.255L49.79,40c1.7,25.107-1.7,29.788-9.36,36.6-3.83,2.979-7.234,4.255-6.809,9.36l5.106,98.725C39.154,191.491,34.48,200,25.115,200s-14.048-8.506-13.622-15.316L16.6,85.959c.426-5.106-2.979-6.383-6.808-9.36C2.131,69.79-1.274,65.109.43,40L4.26,4.257C4.686,1.7,6.388,0,8.94,0A4.021,4.021,0,0,1,13.2,4.257l-1.277,38.3c0,4.255,1.708,5.958,4.255,5.958s4.255-1.7,4.255-5.958l.426-38.3A4.025,4.025,0,0,1,25.114,0a4.019,4.019,0,0,1,4.252,4.255l.426,38.3c0,4.255,1.7,5.958,4.255,5.958s4.255-1.7,4.255-5.958Z" transform="translate(198.509) rotate(83)" fill="url(#linear-gradient)"/>
</svg>
