<svg xmlns="http://www.w3.org/2000/svg" xmlns:xlink="http://www.w3.org/1999/xlink" width="877.468" height="786.902" viewBox="0 0 877.468 786.902">
  <defs>
    <linearGradient id="linear-gradient" x1="0.839" y1="0.889" x2="0.202" y2="0.107" gradientUnits="objectBoundingBox">
      <stop offset="0" stop-color="#da3c0d"/>
      <stop offset="1" stop-color="#f66135"/>
    </linearGradient>
  </defs>
  <path id="Path_630" data-name="Path 630" d="M384.2-31.844C525.2,37.849,455.02,134.233,616.357,228.944S611.285,491.73,339.108,393.121,164.163,212.736,47.467,63.626,243.191-101.538,384.2-31.844Z" transform="matrix(0.809, -0.588, 0.588, 0.809, 24.373, 457.456)" fill="url(#linear-gradient)"/>
  <path id="Path_64" data-name="Path 64" d="M-436.9,1073.58c0-68.769-35.062-144.3-97.1-144.3s-97.091,66.079-97.091,144.3c0,68.769,24.273,91.7,48.547,113.277,11.328,10.79,22.925,14.834,21.58,31.016l-16.2,312.861c-1.348,21.58,13.5,48.547,43.16,48.547s44.492-26.971,43.144-48.547l-16.167-312.861c-1.348-16.182,10.249-20.228,21.58-31.016C-461.17,1165.275-436.9,1142.356-436.9,1073.58Z" transform="matrix(0.259, -0.966, 0.966, 0.259, -534.924, -388.834)" fill="#fff"/>
</svg>
