<svg xmlns="http://www.w3.org/2000/svg" width="23.513" height="30" viewBox="0 0 23.513 30">
  <g id="Pin-2" transform="translate(-1343.985 -1347.067)">
    <path id="Path_625" data-name="Path 625" d="M1366.18,1353.393a11.539,11.539,0,0,0-9.129-6.261,13.124,13.124,0,0,0-2.618,0,11.542,11.542,0,0,0-9.13,6.26,12.469,12.469,0,0,0,1.709,13.724l7.838,9.53a1.154,1.154,0,0,0,1.783,0l7.838-9.53a12.468,12.468,0,0,0,1.709-13.723Zm-10.438,9.827a4.615,4.615,0,1,1,4.615-4.615A4.615,4.615,0,0,1,1355.742,1363.22Z" transform="translate(0 0)" fill="#29339b"/>
  </g>
</svg>
