<svg xmlns="http://www.w3.org/2000/svg" width="347.854" height="350" viewBox="0 0 347.854 350">
  <g id="Eleat_Logo" data-name="Eleat Logo" transform="translate(-96.682 -96.77)">
    <path id="Path_2039" data-name="Path 2039" d="M207.815,124.4H77.088v-27.9a32.135,32.135,0,0,1,46.726-28.634l84,42.808Z" transform="translate(62.792 32.457)" fill="#ffdb59"/>
    <path id="Path_2040" data-name="Path 2040" d="M115.926,124.4H246.653v-27.9a32.135,32.135,0,0,0-46.726-28.634l-84,42.808Z" transform="translate(154.681 32.457)" fill="#ffdb59"/>
    <path id="Path_2041" data-name="Path 2041" d="M82.378,93.47H365.626A12.131,12.131,0,0,1,377.757,105.6V333.2a12.128,12.128,0,0,1-12.131,12.131H82.378A12.131,12.131,0,0,1,70.247,333.2V105.6A12.133,12.133,0,0,1,82.378,93.47" transform="translate(46.607 101.442)" fill="#dd4624"/>
    <path id="Path_2042" data-name="Path 2042" d="M400.189,172.6H76.173a11.917,11.917,0,0,1-11.919-11.919V90A11.917,11.917,0,0,1,76.173,78.084H189a11.91,11.91,0,0,1,8.93,4.026l25.15,28.449a11.919,11.919,0,0,0,16.359,1.431l39.291-31.307a11.913,11.913,0,0,1,7.429-2.6H400.189A11.917,11.917,0,0,1,412.108,90v70.682A11.917,11.917,0,0,1,400.189,172.6" transform="translate(32.428 65.04)" fill="#da3c0d"/>
    <rect id="Rectangle_416" data-name="Rectangle 416" width="94.539" height="94.519" transform="translate(223.338 143.123)" fill="#efc745"/>
    <path id="Path_2043" data-name="Path 2043" d="M125.046,208.305c0-15.3,8.543-25.453,24.184-37.46,3.467-2.622,6.766-7.61,6.766-13.023,0-9.808-7.018-15.053-17.927-15.053-10.485,0-20.125,5.244-23.76,13.868l-9.724-21.478c2.706-4.988,11.33-18.856,35.006-18.856,24.777,0,41.351,19.617,41.351,36.359,0,12.855-3.3,21.226-11.246,29.428-8.543,8.8-18.944,9.893-18.944,24.777a29.5,29.5,0,0,0,.172,3.8l-25.877.084Zm-4.312,36.275a17.268,17.268,0,0,1,17.335-17.166,17.739,17.739,0,0,1,17.671,17.5A17.288,17.288,0,0,1,138.237,262a17.465,17.465,0,0,1-17.5-17.419" transform="translate(127.846 155.466)" fill="#fff"/>
  </g>
</svg>
