<svg xmlns="http://www.w3.org/2000/svg" width="403.581" height="350" viewBox="0 0 403.581 350">
  <g id="Connoisseur_Logo" data-name="Connoisseur Logo" transform="translate(-82.255 -91.182)">
    <path id="Path_2035" data-name="Path 2035" d="M416.582,351.872H90.69c-17.491,0-31.665-15.133-31.665-33.8V120c0-18.667,14.174-33.8,31.665-33.8H416.582c17.488,0,31.665,15.133,31.665,33.8V318.076c0,18.664-14.177,33.8-31.665,33.8" transform="translate(37.588 89.311)" fill="#da3c0d"/>
    <path id="Path_2036" data-name="Path 2036" d="M268.85,74.667a48.172,48.172,0,0,0-68.043,0c-8.209,8.209-18.608,24.721-25.288,40.157a102.906,102.906,0,0,0-6.713,20.6,102.935,102.935,0,0,0-6.716-20.6c-6.68-15.436-17.079-31.948-25.288-40.157a48.114,48.114,0,0,0-68.044,68.044c8.209,8.209,24.721,18.608,40.157,25.288q18.148,7.856,31.375,7.856c.609,0,1.212-.013,1.805-.04V410.6h54.634V175.848c.2,0,.392,0,.59,0q13.2,0,31.375-7.853c15.436-6.683,31.948-17.079,40.153-25.288A48.166,48.166,0,0,0,268.85,74.667ZM117.215,136.462c-11.585-5.577-21.9-12.649-25.732-16.476a15.976,15.976,0,0,1,22.593-22.593c3.828,3.828,10.9,14.144,16.476,25.732,4.7,9.773,6.5,16.519,7.056,20.393-3.87-.56-10.62-2.352-20.393-7.056m128.91-16.476c-3.828,3.828-14.144,10.9-25.729,16.476-9.776,4.7-16.523,6.5-20.4,7.056.56-3.874,2.352-10.623,7.056-20.4,5.573-11.585,12.652-21.9,16.476-25.729a15.976,15.976,0,1,1,22.593,22.593Z" transform="translate(27.589 30.583)" fill="#ffdb59"/>
    <path id="Path_2037" data-name="Path 2037" d="M283.725,100.018c-8.36-3.459-17.139-2.471-25.4,2.464-10.178,6.084-18.4,17.8-23.433,29.936-8.867,21.408-4.266,31.675.507,41.52,2.135,4.816,5.224,7.573,2.718,12.438L205.108,255.7l-32.917-69.127c-2.5-4.859.329-7.51,2.892-12.01,4.773-9.846,6.219-15.857-5.718-39.926l-18.387-33.7a5.07,5.07,0,0,0-6.581-2.2,4.087,4.087,0,0,0-2.23,5.85l16.908,37.255c1.739,4.2.754,6.571-1.762,7.616s-4.895.063-6.634-4.137l-16.068-37.6a4.544,4.544,0,1,0-8.4,3.478l15.231,37.947c1.739,4.2.751,6.578-1.762,7.619s-4.895.059-6.634-4.141l-14.391-38.3c-1.034-2.609-3.208-3.6-5.936-2.457s-3.5,3.416-2.879,6.11L120.67,154.81c8.581,25.462,13.851,28.687,24.188,32.271,5,1.374,8.874,1.245,10.541,6.453l35.3,99.478a15.045,15.045,0,0,0,28.8,0l35.4-99.679c1.667-5.211,5.8-4.977,10.715-6.871,10.336-3.59,20.851-7.593,29.718-29,4.859-11.73,6.7-25.453,4.147-37-2.013-9.114-7.036-16.819-15.765-20.439" transform="translate(153.699 116.311)" fill="#fff"/>
  </g>
</svg>
