<svg xmlns="http://www.w3.org/2000/svg" xmlns:xlink="http://www.w3.org/1999/xlink" width="314.573" height="355.197" viewBox="0 0 314.573 355.197">
  <defs>
    <filter id="Path_2045" x="0" y="0" width="314.573" height="333.503" filterUnits="userSpaceOnUse">
      <feOffset input="SourceAlpha"/>
      <feGaussianBlur stdDeviation="7.5" result="blur"/>
      <feFlood flood-opacity="0.161"/>
      <feComposite operator="in" in2="blur"/>
      <feComposite in="SourceGraphic"/>
    </filter>
  </defs>
  <g id="Explorer_Logo" data-name="Explorer Logo" transform="translate(-841.308 -2127.272)">
    <path id="Path_2044" data-name="Path 2044" d="M369.155,408.816H71.5a6.637,6.637,0,0,1-6.635-6.635V192.551a6.623,6.623,0,0,1,2.327-5.044l148.828-127.1a6.633,6.633,0,0,1,8.618,0l148.831,127.1a6.631,6.631,0,0,1,2.324,5.044V402.182a6.635,6.635,0,0,1-6.635,6.635" transform="translate(778.267 2073.651)" fill="#efc745"/>
    <g transform="matrix(1, 0, 0, 1, 841.31, 2127.27)" filter="url(#Path_2045)">
      <path id="Path_2045-2" data-name="Path 2045" d="M82.9,65H327.982a10.743,10.743,0,0,1,10.744,10.744V350.5H72.153V75.743A10.743,10.743,0,0,1,82.9,65" transform="translate(-48.15 -41)" fill="#fff" stroke="#da3c0d" stroke-width="3"/>
    </g>
    <path id="Path_2046" data-name="Path 2046" d="M216.417,208.68,64.863,101.776V314.561A6.537,6.537,0,0,0,71.4,321.1H369.269a6.524,6.524,0,0,0,6.522-6.522v-212.8L224.237,208.68a6.782,6.782,0,0,1-7.821,0" transform="translate(778.27 2161.37)" fill="#ffdb59"/>
    <path id="Path_2047" data-name="Path 2047" d="M247.742,71.217c-7.721-3.2-15.827-2.285-23.454,2.272-9.4,5.619-17,16.436-21.64,27.645-8.189,19.773-3.939,29.252.468,38.344,1.971,4.45,4.825,6.993,2.51,11.486L175.14,214.992l-30.4-63.839c-2.312-4.49.3-6.939,2.671-11.094,4.408-9.092,5.743-14.641-5.281-36.872l-16.98-31.119a4.682,4.682,0,0,0-6.078-2.029,3.775,3.775,0,0,0-2.059,5.4l15.614,34.4c1.606,3.879.7,6.072-1.627,7.036s-4.52.055-6.127-3.824L110.036,78.332a4.2,4.2,0,1,0-7.754,3.212l14.066,35.046c1.606,3.875.694,6.072-1.628,7.033s-4.52.055-6.126-3.821L95.3,84.431c-.955-2.409-2.963-3.322-5.482-2.269s-3.234,3.155-2.659,5.643l10,34.009c7.924,23.514,12.791,26.492,22.337,29.805,4.615,1.268,8.2,1.147,9.734,5.959l32.6,91.864a13.892,13.892,0,0,0,26.6,0l32.695-92.053c1.539-4.812,5.354-4.593,9.9-6.346,9.546-3.313,19.256-7.012,27.445-26.784,4.487-10.832,6.19-23.505,3.83-34.167-1.859-8.42-6.5-15.535-14.559-18.875" transform="translate(823.424 2095.103)" fill="#da3c0d"/>
  </g>
</svg>
