<svg xmlns="http://www.w3.org/2000/svg" width="364.253" height="351.5" viewBox="0 0 364.253 351.5">
  <g id="Enthusiast_Logo" data-name="Enthusiast Logo" transform="translate(-400.147 -2083.319)">
    <path id="Path_2048" data-name="Path 2048" d="M348,337H74.04V81.224A18.184,18.184,0,0,1,92.224,63.04H329.81A18.184,18.184,0,0,1,348,81.224Z" transform="translate(371.255 2021.779)" fill="#fff" stroke="#da3c0d" stroke-width="3"/>
    <path id="Path_2049" data-name="Path 2049" d="M259.631,76.706c-8.291-3.434-17-2.453-25.188,2.44-10.095,6.034-18.252,17.651-23.241,29.69-8.795,21.235-4.231,31.415.5,41.18,2.117,4.779,5.181,7.511,2.7,12.336L181.66,231.114l-32.646-68.56c-2.483-4.822.327-7.452,2.868-11.914,4.734-9.765,6.168-15.724-5.671-39.6L127.975,77.621a5.028,5.028,0,0,0-6.527-2.179,4.055,4.055,0,0,0-2.212,5.8L136,118.193c1.725,4.165.748,6.521-1.748,7.556s-4.855.059-6.58-4.106l-15.936-37.3a4.507,4.507,0,1,0-8.327,3.45l15.106,37.638c1.725,4.162.745,6.521-1.748,7.553s-4.855.059-6.58-4.1L95.92,90.9c-1.026-2.587-3.182-3.567-5.887-2.437s-3.473,3.388-2.855,6.06l10.738,36.524c8.51,25.253,13.737,28.452,23.989,32.009,4.956,1.362,8.8,1.232,10.454,6.4l35.015,98.658a14.92,14.92,0,0,0,28.566,0l35.113-98.86c1.653-5.168,5.75-4.933,10.627-6.815,10.252-3.558,20.68-7.53,29.474-28.765,4.819-11.634,6.648-25.243,4.113-36.694-2-9.043-6.978-16.684-15.635-20.271" transform="translate(400.581 2048.152)" fill="#da3c0d"/>
    <path id="Path_2050" data-name="Path 2050" d="M413.747,221.964H70.946a10.718,10.718,0,0,1-8.363-17.4l43.359-57.233H379.454l42.656,57.233A10.717,10.717,0,0,1,413.747,221.964Z" transform="translate(339.927 2212.855)" fill="#da3c0d"/>
    <path id="Path_2051" data-name="Path 2051" d="M285.155,124.26c-3.809,1.192-8.275,2.4-13.505,3.587-23.447,5.3-54.123,8.223-86.374,8.223s-62.927-2.921-86.374-8.223c-5.234-1.183-9.7-2.395-13.505-3.587v21.552c1.183.31,2.382.621,3.613.921,25.871,6.331,60.059,9.82,96.266,9.82s70.4-3.489,96.263-9.82c1.232-.3,2.434-.611,3.617-.921Z" transform="translate(396.998 2160.562)" fill="#efc745"/>
    <rect id="Rectangle_419" data-name="Rectangle 419" width="19.504" height="134.862" transform="translate(472.643 2258.896)" fill="#ffdb59"/>
    <path id="Path_2052" data-name="Path 2052" d="M103.109,153.165h0a25.528,25.528,0,0,0-25.528,25.528v.555h51.055v-.555a25.528,25.528,0,0,0-25.528-25.528" transform="translate(379.283 2226.087)" fill="#efc745"/>
    <path id="Path_2053" data-name="Path 2053" d="M98.174,108.78A18.414,18.414,0,1,1,79.758,127.2,18.417,18.417,0,0,1,98.174,108.78" transform="translate(384.218 2125.469)" fill="#efc745"/>
    <rect id="Rectangle_420" data-name="Rectangle 420" width="19.504" height="134.862" transform="translate(672.403 2258.896)" fill="#ffdb59"/>
    <path id="Path_2054" data-name="Path 2054" d="M159.321,108.78A18.414,18.414,0,1,1,140.9,127.2a18.417,18.417,0,0,1,18.416-18.416" transform="translate(522.833 2125.469)" fill="#efc745"/>
    <path id="Path_2055" data-name="Path 2055" d="M164.256,153.165h0a25.528,25.528,0,0,1,25.528,25.528v.555H138.728v-.555a25.528,25.528,0,0,1,25.528-25.528" transform="translate(517.898 2226.087)" fill="#efc745"/>
  </g>
</svg>
