<svg xmlns="http://www.w3.org/2000/svg" width="238.009" height="55.636" viewBox="0 0 238.009 55.636">
  <g id="Group_316" data-name="Group 316" transform="translate(-195.18 -4151.836)">
    <path id="s" d="M812.838,180.737a15.294,15.294,0,0,1,9.219,3.191,1.587,1.587,0,0,1,.692.958,1.853,1.853,0,0,1-1.523,1.9,1.593,1.593,0,0,1-1.075-.4,12.926,12.926,0,0,0-12.231-2.028,4.761,4.761,0,0,0-3.232,3.241c-.828,2.564.011,4.473,2.5,5.5,2.736,1.127,5.693,1.487,8.5,2.383,1.034.33,2.078.643,3.089,1.035,2.852,1.1,4.961,2.847,5.067,6.2a7.881,7.881,0,0,1-4.822,7.98c-5.2,2.371-10.427,1.756-15.573-.345a17.3,17.3,0,0,1-3.49-2.093,1.319,1.319,0,0,1-.54-.72,2.022,2.022,0,0,1,1.61-2.153c.679-.076,1.2.5,1.564.745a15.9,15.9,0,0,0,12.147,2.721c2.429-.459,4.479-1.523,5.126-4.219a3.906,3.906,0,0,0-1.807-4.573,18.762,18.762,0,0,0-5.866-2.071,57.556,57.556,0,0,1-6.79-1.938c-5.22-2.017-6.475-7.881-2.582-11.99C804.909,181.851,808.2,180.674,812.838,180.737Z" transform="translate(-455.053 3982.825)" fill="#da3d15"/>
    <path id="o" d="M766.854,195.879c.006,7.833-4.508,13.992-11.112,15.742a15.058,15.058,0,0,1-18.974-13.681c-.369-6.146,1.681-11.285,6.908-14.753A14.743,14.743,0,0,1,765.6,190.1,15.767,15.767,0,0,1,766.854,195.879Zm-26.107.626a11.624,11.624,0,0,0,.928,4.918c1.693,3.934,4.484,6.629,8.873,7.116,4.635.513,8.071-1.588,10.469-5.455a13.014,13.014,0,0,0-1.265-15.1,10.154,10.154,0,0,0-13.476-2.108C742.485,188.375,740.873,192.074,740.747,196.506Z" transform="translate(-426.553 3982.846)" fill="#da3d15"/>
    <path id="v" d="M192.317,135.409a4.3,4.3,0,0,0-3.97.385,9.888,9.888,0,0,0-3.663,4.68c-1.386,3.347-.667,4.951.079,6.491.334.753.817,1.184.425,1.944l-5.161,10.838-5.145-10.806c-.392-.76.052-1.175.452-1.879.746-1.539.972-2.478-.894-6.241l-2.874-5.268a.794.794,0,0,0-1.029-.344.639.639,0,0,0-.349.914l2.643,5.824c.272.656.118,1.027-.276,1.191s-.765.009-1.037-.647l-2.512-5.879a.71.71,0,1,0-1.312.544l2.381,5.933c.272.656.117,1.028-.276,1.19s-.765.009-1.037-.647l-2.249-5.987a.644.644,0,0,0-.928-.384.752.752,0,0,0-.45.955l1.693,5.757c1.341,3.98,2.165,4.485,3.781,5.046.781.215,1.387.194,1.648,1.009l5.519,15.55a2.352,2.352,0,0,0,4.5,0L187.813,150c.261-.815.906-.778,1.675-1.074,1.616-.561,3.259-1.187,4.646-4.534a10.042,10.042,0,0,0,.648-5.784A4.256,4.256,0,0,0,192.317,135.409Z" transform="translate(112.48 4027.704)" fill="#da3d15"/>
    <path id="a" d="M643.231,206.641a14.432,14.432,0,0,1-8.241,5.079c-4.289.9-8.36.643-11.555-2.855a8.442,8.442,0,0,1,2.729-13.649c4.915-2.319,9.962-1.917,15.035-.606.434.112,1.538.34,1.538.34a34.982,34.982,0,0,0-.133-4.374c-.692-4.558-3.994-7.038-8.781-6.878a16.829,16.829,0,0,0-8.369,2.921c-.813.5-1.149.51-1.591-.388-.83-1.688-.9-1.679.763-2.6a19.885,19.885,0,0,1,10.883-2.89c6.856.37,11.142,4.713,11.229,11.638.058,4.538.013,9.077.01,13.616,0,.883-.009,1.7,1.085,2.079.669.229.756.591.744,1.467s.081,1.56-.795,2.039a3.863,3.863,0,0,1-3.57-.7,2.857,2.857,0,0,1-.808-1.828C643.358,208.342,643.3,207.635,643.231,206.641Zm-.494-6.026q0-1.156,0-2.313a.8.8,0,0,0-.628-.892c-4.365-1.349-8.755-2.073-13.18-.322-2.3.91-3.959,2.474-4.043,5.114a6.317,6.317,0,0,0,3.619,6.069c2,1.084,4.112.875,6.246.606C639.62,208.261,642.739,205.051,642.737,200.615Z" transform="translate(-373.932 3982.832)" fill="#da3d15"/>
    <path id="r" d="M591.813,188.283a13.732,13.732,0,0,1,6.9-6.231,10.153,10.153,0,0,1,3.714-.717.709.709,0,0,1,.793.766v.272c0,2.409.06,2.385-2.3,2.874a11.312,11.312,0,0,0-7.815,5.387A7.35,7.35,0,0,0,592,194.619c.063,5.352,0,10.706.047,16.058.008.944-.225,1.224-1.193,1.21-2.769-.041-2.771.005-2.771-2.759L588.06,183c-.007-1.163.239-1.588,1.486-1.533,2.235.1,2.235.019,2.239,2.225,0,1.451.015,2.9.028,4.353Z" transform="translate(-358.927 3982.552)" fill="#da3d15"/>
    <path id="c" d="M525.777,196.206c.014-7.823,4.952-13.939,12.384-15.334a13.974,13.974,0,0,1,14.536,5.792c.129.2.541.752.352,1.155-.113.24-.371.29-1.339.562-1.362.382-1.426.445-1.687.413a2.53,2.53,0,0,1-1.55-1.139c-3.665-4.5-10.8-4.673-15.034-.55-5.866,5.707-4.5,16.286,2.62,20.262a10.26,10.26,0,0,0,13.352-3.254c.311-.478.563-.64,1.071-.47.3.1.608.182.912.271,2.564.757,2.641.876.89,3.028-3.355,4.121-7.815,5.517-12.976,5.036C531.1,211.212,525.609,203.8,525.777,196.206Z" transform="translate(-330.594 3982.887)" fill="#da3d15"/>
    <path id="y" d="M924.154,208.188c.51-1.256,6.841-17.406,9.606-24.5.817-2.094.818-2.093,3.038-2.09,1.575,0,1.579,0,.988,1.476q-7.544,18.787-15.094,37.573a6.619,6.619,0,0,1-7.764,4.252c-.681-.112-.947-.348-.947-1.024v-.268a4.531,4.531,0,0,1,.179-2.012c.361-.652,1.22-.117,1.857-.17a2.994,2.994,0,0,0,2.779-1.843c1.021-2.37,2.009-4.755,3.052-7.116.3-.669-.088-1.141-.312-1.658q-6.066-13.959-12.167-27.9c-.437-.994-.478-1.365.809-1.334,2.711.065,2.715,0,3.767,2.5C917.076,191.505,923.8,207.4,924.154,208.188Z" transform="translate(-504.96 3982.443)" fill="#da3d15"/>
    <path id="t" d="M877.892,177.572c0-1.178-.294-1.325-1.393-1.349H875a1.954,1.954,0,0,1-1.054-.176,2.086,2.086,0,0,1-.053-2.855c.259-.189.434-.135,1.654-.135h1.257c1.106,0,1.083-.422,1.084-2.329v-6.8c0-.924.293-1.116,1.152-1.114,2.819.009,2.82-.025,2.819,2.851v6.4c0,.76.233,1,1.007,1h4.9a1.374,1.374,0,0,1,.947.244,1.981,1.981,0,0,1,.013,2.714,1.245,1.245,0,0,1-.813.21l-5.037-.027c-.745.027-1.017.181-1.017.975v19.6c0,2.151,1.746,3.487,4.117,3.325a7.729,7.729,0,0,0,3.382-.927c.529-.3.821-.366,1.144.329l.583,1.352c.427,1.283-.169,1.437-2.319,2.111a11.877,11.877,0,0,1-6.28.584,5.358,5.358,0,0,1-4.6-5.557Z" transform="translate(-488.705 3990.979)" fill="#da3d15"/>
    <g id="i" transform="translate(375.206 4151.836)">
      <path id="Path_13" data-name="Path 13" d="M856.023,196.864c0-4.674.023-9.349-.018-14.022-.008-.925.221-1.255,1.2-1.25,2.758.012,2.758-.033,2.758,2.781,0,8.758-.017,17.517.022,26.275.005,1.031-.211,1.393-1.32,1.36-2.643-.078-2.644-.016-2.644-2.619Q856.024,203.126,856.023,196.864Z" transform="translate(-856.005 -169.4)" fill="#da3d15"/>
      <path id="Path_14" data-name="Path 14" d="M859.976,162.252c0,3.139,0,3.119-3.2,2.825-.607-.056-.757-.285-.749-.827.02-1.4.023-2.8,0-4.2-.01-.575.2-.835.784-.835h.135C859.976,159.22,859.976,159.114,859.976,162.252Z" transform="translate(-856.029 -159.22)" fill="#da3d15"/>
    </g>
  </g>
</svg>
