<svg xmlns="http://www.w3.org/2000/svg" width="30" height="30" viewBox="0 0 30 30">
  <g id="Group_87" data-name="Group 87" transform="translate(-1432 -2602)">
    <circle id="Ellipse_147" data-name="Ellipse 147" cx="15" cy="15" r="15" transform="translate(1432 2602)" fill="#fff"/>
    <g id="Group_77" data-name="Group 77" transform="translate(649.195 1151.424)">
      <g id="Group_76" data-name="Group 76" transform="translate(782.805 1450.576)">
        <path id="Path_624" data-name="Path 624" d="M797.8,1450.576a15,15,0,1,0,15,15A15,15,0,0,0,797.8,1450.576Zm4.023,9.447a2.412,2.412,0,0,1,2.409,2.409.692.692,0,1,1-1.384,0,1.025,1.025,0,0,0-2.05,0,.692.692,0,1,1-1.384,0A2.412,2.412,0,0,1,801.828,1460.023Zm-7.675-.007a2.412,2.412,0,0,1,2.409,2.409.692.692,0,1,1-1.384,0,1.025,1.025,0,0,0-2.05,0,.692.692,0,1,1-1.384,0A2.412,2.412,0,0,1,794.153,1460.015Zm10.016,8.617a7.021,7.021,0,0,1-12.733-.02.83.83,0,1,1,1.534-.637,5.363,5.363,0,0,0,9.674,0,.83.83,0,1,1,1.525.659Z" transform="translate(-782.805 -1450.576)" fill="#29339b"/>
      </g>
    </g>
  </g>
</svg>
