<svg xmlns="http://www.w3.org/2000/svg" xmlns:xlink="http://www.w3.org/1999/xlink" width="257.729" height="125.34" viewBox="0 0 257.729 125.34">
  <defs>
    <linearGradient id="linear-gradient" x1="0.5" x2="0.5" y2="1" gradientUnits="objectBoundingBox">
      <stop offset="0" stop-color="#f66135"/>
      <stop offset="1" stop-color="#da3c0d"/>
    </linearGradient>
  </defs>
  <path id="Path_53" data-name="Path 53" d="M46.281,5.319A5.025,5.025,0,0,1,51.6,0c3.192,0,5.319,2.128,5.85,5.319L62.238,50c2.128,31.384-2.128,37.235-11.7,45.745-4.788,3.723-9.043,5.319-8.511,11.7L48.41,230.853C48.942,239.363,43.1,250,31.393,250s-17.56-10.632-17.028-19.145l6.383-123.407c.532-6.383-3.724-7.979-8.511-11.7C2.663,87.238-1.592,81.386.538,50L5.325,5.322C5.857,2.13,7.985,0,11.176,0a5.026,5.026,0,0,1,5.319,5.319L14.9,53.195c0,5.319,2.135,7.447,5.319,7.447s5.319-2.127,5.319-7.447l.532-47.873A5.031,5.031,0,0,1,31.393,0a5.024,5.024,0,0,1,5.315,5.319l.532,47.873c0,5.319,2.128,7.447,5.319,7.447s5.319-2.127,5.319-7.447Z" transform="matrix(0.259, 0.966, -0.966, 0.259, 241.481, 0)" fill="url(#linear-gradient)"/>
</svg>
