<svg xmlns="http://www.w3.org/2000/svg" viewBox="0 0 503.17 511"><g id="Layer_2" data-name="Layer 2"><g id="Layer_1-2" data-name="Layer 1"><path d="M162.87,385.76a8.86,8.86,0,0,0-12.53,0,19.91,19.91,0,0,1-28.12,0,37.63,37.63,0,0,0-53.16,0,8.85,8.85,0,0,0,12.51,12.52,19.92,19.92,0,0,1,28.13,0,37.65,37.65,0,0,0,53.17,0A8.85,8.85,0,0,0,162.87,385.76Z" style="fill:#29339b"/><path d="M135.77,344.09a20.31,20.31,0,0,1,28.11,0,37.65,37.65,0,0,0,53.17,0,8.85,8.85,0,1,0-12.52-12.52,19.91,19.91,0,0,1-28.12,0,37.57,37.57,0,0,0-53.16,0,8.85,8.85,0,1,0,12.52,12.52Z" style="fill:#29339b"/><path d="M190,289.91a19.92,19.92,0,0,1,28.13,0,37.66,37.66,0,0,0,53.16,0,8.85,8.85,0,1,0-12.52-12.52,19.93,19.93,0,0,1-28.12,0,37.62,37.62,0,0,0-53.17,0A8.85,8.85,0,0,0,190,289.91Z" style="fill:#29339b"/><path d="M244.14,235.72a19.89,19.89,0,0,1,28.12,0,37.67,37.67,0,0,0,53.17,0,8.86,8.86,0,1,0-12.52-12.53,19.91,19.91,0,0,1-28.12,0,37.64,37.64,0,0,0-53.17,0,8.86,8.86,0,0,0,12.52,12.53Z" style="fill:#29339b"/><path d="M298.33,181.53a19.94,19.94,0,0,1,28.13,0,37.55,37.55,0,0,0,53.15,0A8.85,8.85,0,1,0,367.1,169,20.34,20.34,0,0,1,339,169a37.63,37.63,0,0,0-53.16,0,8.85,8.85,0,0,0,12.51,12.52Z" style="fill:#29339b"/><path d="M216.27,108a16.5,16.5,0,0,1,23.33,0A34.21,34.21,0,0,0,288,108a8.85,8.85,0,0,0-12.51-12.52,16.51,16.51,0,0,1-23.34,0,34.25,34.25,0,0,0-48.37,0A8.86,8.86,0,1,0,216.27,108Z" style="fill:#29339b"/><path d="M163,171.76a34.27,34.27,0,0,0,48.37,0,8.86,8.86,0,0,0-12.53-12.52,16.53,16.53,0,0,1-23.32,0,34.25,34.25,0,0,0-48.38,0,8.85,8.85,0,0,0,12.52,12.52A16.53,16.53,0,0,1,163,171.76Z" style="fill:#29339b"/><path d="M294.51,398.62a16.5,16.5,0,0,1-23.33,0,34.25,34.25,0,0,0-48.38,0,8.85,8.85,0,0,0,12.52,12.52,16.54,16.54,0,0,1,23.33,0,34.25,34.25,0,0,0,48.37,0,8.85,8.85,0,0,0-12.51-12.52Z" style="fill:#29339b"/><path d="M352.52,127.34a15.11,15.11,0,0,1,21.35,0,32.76,32.76,0,0,0,46.38,0,8.85,8.85,0,0,0-12.52-12.52,15.43,15.43,0,0,1-21.34,0,32.88,32.88,0,0,0-46.39,0,8.85,8.85,0,0,0,12.52,12.52Z" style="fill:#29339b"/><path d="M502.1,185.68c-3.11-13.93-12.72-24.81-28.56-32.35-7.78-6.33-20.06-4.59-39.08,5.77,6.83-11.24,13.34-22.54,19.32-33.93,9-17.09,12-44.34.2-63.37-5.57-9-16.91-19.72-38.3-19.35-22.8.42-48.25,14.7-72.32,31.82.91-1.67,1.85-3.35,2.74-5,7.47-14.21,9.9-36.93.11-52.82C339.54,5.58,327.87.07,313.83,0c-28.39.51-61.4,26.79-87.91,47.9-6.87,5.48-13.37,10.64-18.74,14.48C158.35,97.29,112.87,142,75.62,191.76c-4,5.35-9.7,12-16.29,19.8-28,32.88-66.24,77.91-58.26,113.75,3.11,13.93,12.71,24.81,28.56,32.35A17.31,17.31,0,0,0,41,361.43c5.19,0,11.52-1.75,19.09-5.14-20.63,29.32-35.95,60.31-30,86.85,3.72,16.68,15.32,29.73,34.53,38.8a20.23,20.23,0,0,0,13,4.21H78c16.58-.21,45.22-17.06,77.5-40.79-6.11,14.23-7.53,34.57,1.49,49.21,6.55,10.63,17.71,16.44,31.52,16.44h.89c28.39-.51,61.4-26.78,87.91-47.9,6.87-5.48,13.37-10.64,18.74-14.48,48.8-34.89,94.29-79.63,131.56-129.38,4-5.35,9.69-12,16.3-19.8C471.81,266.56,510.09,221.53,502.1,185.68ZM91.8,315.74c-41.69,30.45-51.17,27.92-51,28.19l-1.13-1.13-1.45-.67c-11.44-5.21-17.92-12-19.87-20.66-4.87-21.92,17.74-53.91,39.32-80.36a8.69,8.69,0,0,0,2.4,7.28,8.83,8.83,0,0,0,12.52,0,16.87,16.87,0,0,1,23.32,0,34.25,34.25,0,0,0,48.37,0,8.85,8.85,0,0,0-12.52-12.52,16.5,16.5,0,0,1-23.33,0c-11.19-11.21-29.6-12.67-42.72-4.44,2.43-2.9,4.84-5.72,7.1-8.39,6.8-8,12.66-14.88,17-20.66,36.16-48.3,80.32-91.72,127.68-125.59,5.74-4.1,12.41-9.41,19.46-15,23.14-18.43,54.82-43.65,77.2-44h.63c7.69,0,13.06,2.63,16.37,8,5.95,9.66,4.26,25.84-.7,35.29-7.35,14-15.63,27.95-25.32,42.66l-1.38,1.1-3.08,2.44-3.07,2.41c-.85.67-1.7,1.34-2.52,2-1.37,1.06-2.68,2.07-4,3.05l-1.33,1c-1.76,1.32-3.46,2.58-5.07,3.73-60.33,43.14-116.57,98.44-162.63,159.94-3.44,4.6-7.94,10-13.06,16.12-2.29,2.72-4.67,5.54-7.2,8.51-2.94,3.45-6,7.06-9.07,10.71C92.4,315,92.12,315.37,91.8,315.74ZM75.67,468.16,74.56,467l-1.46-.66c-14.81-6.75-23.25-15.62-25.81-27.09-6.95-31.22,29-77.51,58.21-112.32,3-3.57,5.93-7,8.77-10.36.33-.39.68-.79,1-1.18,8.38-9.86,15.64-18.38,21-25.49q16.86-22.53,35.5-43.81A727.36,727.36,0,0,1,295,133.8c1.7-1.23,3.47-2.54,5.3-3.91.67-.5,1.38-1,2.06-1.57,1.15-.88,2.3-1.75,3.5-2.69,1-.76,2-1.57,3-2.38l3.17-2.49,2.25-1.78,2.93-2.32h0l1.78-1.42c28.92-23,68.5-54.56,97-55.07,11.11-.26,18.27,3.38,22.93,10.93,7.76,12.6,5.63,33.6-.81,45.85A644.18,644.18,0,0,1,394.6,187.7l0,0Q386.66,199,378.2,210.09l-.17.24q-8,10.54-16.54,20.92c-.45.54-.87,1.07-1.31,1.61-5.2,6.33-10.57,12.58-16,18.79-.86,1-1.7,2-2.57,3q-9.25,10.45-18.91,20.63c-.61.65-1.54,1.59-2.72,2.78-.1.11-.25.25-.37.37-1,1-2.19,2.19-3.52,3.5-14.14,13.91-45.54,43.64-81,75C215.43,374.24,196.9,390,180,403.79l-1.11.91h0C91.5,475.51,76.48,468.62,75.67,468.16ZM452.57,261a8.8,8.8,0,0,0-14.38-2.78,16.86,16.86,0,0,1-23.33,0c-12.94-12.94-35.46-12.92-48.37,0A8.85,8.85,0,0,0,379,270.75a16.88,16.88,0,0,1,23.33,0,33.69,33.69,0,0,0,35.91,7.85c-2.72,3.24-5.4,6.39-7.91,9.35-6.79,8-12.65,14.88-17,20.66C377.17,356.92,333,400.34,285.67,434.2c-5.74,4.1-12.4,9.42-19.46,15-23.14,18.43-54.82,43.65-77.2,44-8.29.26-13.6-2.48-17-8-5.95-9.65-4.25-25.82.71-35.28,5.33-10.13,11.5-20.69,19.34-33.1,19.16-15.58,38.5-32.24,56.52-48.27q20.87-16.68,40.68-35a7.88,7.88,0,0,0,13.12.91,16.51,16.51,0,0,1,23.34,0,34.16,34.16,0,0,0,48.36,0A8.86,8.86,0,0,0,361.55,322a16.86,16.86,0,0,1-23.33,0,34,34,0,0,0-26.93-9.73c5.68-5.72,11.31-11.48,16.78-17.36,3.49-3.43,6.12-6.06,7.45-7.48q9.9-10.43,19.28-21c1-1.08,1.88-2.18,2.84-3.27q8.25-9.39,16.1-18.89c.52-.63,1-1.26,1.53-1.89q8.6-10.48,16.69-21.1l.06-.07q8.7-11.39,16.8-22.92l2.51-3C450,167,461,167.25,462.67,167.41l2.26,1.47c11.44,5.2,17.92,12,19.86,20.66C489.17,209,471.68,236.56,452.57,261Z" style="fill:#29339b"/></g></g></svg>