<svg id="_086-steak" data-name="086-steak" xmlns="http://www.w3.org/2000/svg" width="33.973" height="33.649" viewBox="0 0 33.973 33.649">
  <path id="Path_1007" data-name="Path 1007" d="M32.507,9.583C31.3,6.6,29.042,2.731,25.16,1.186c-2.848-1.134-6.148-.862-9.808.806-4.576,2.086-6.073,5.826-4.213,10.53A4.291,4.291,0,0,1,6.55,18.393c-2.486-.326-4.393.231-5.519,1.613-.862,1.059-1.625,3.08-.367,6.7l.024.059a13.727,13.727,0,0,0,7.865,6.668,16.028,16.028,0,0,0,3.671.617l.191.017c.4.036,1.1.082,2.006.082A24.95,24.95,0,0,0,23.77,32.4a15.623,15.623,0,0,0,9.7-11.269,18.813,18.813,0,0,0-.966-11.546ZM32.2,20.82a14.373,14.373,0,0,1-8.931,10.366A24.156,24.156,0,0,1,12.532,32.76l-.192-.017a14.827,14.827,0,0,1-3.375-.556A12.656,12.656,0,0,1,1.89,26.239c-.814-2.362-.758-4.28.157-5.405.824-1.011,2.322-1.4,4.331-1.141a5.6,5.6,0,0,0,5.979-7.653c-1.61-4.072-.419-7.051,3.538-8.855,3.323-1.514,6.277-1.777,8.78-.781,3.452,1.374,5.5,4.93,6.617,7.672A17.5,17.5,0,0,1,32.2,20.82Zm0,0" transform="translate(0 -0.499)" fill="#29339b"/>
  <path id="Path_1008" data-name="Path 1008" d="M284.414,91.418a3.277,3.277,0,1,0-3.277-3.278A3.281,3.281,0,0,0,284.414,91.418Zm0-5.244a1.966,1.966,0,1,1-1.967,1.966A1.969,1.969,0,0,1,284.414,86.174Zm0,0" transform="translate(-262.482 -79.265)" fill="#29339b"/>
  <path id="Path_1009" data-name="Path 1009" d="M68.232,53.141A16.878,16.878,0,0,0,67,47.534c-2.846-7.007-7.519-9.139-13.864-6.25-1.27.58-5.135,2.342-3.045,7.628a6.059,6.059,0,0,1-6.461,8.273C41.9,56.955,40.6,57.3,40,58.14c-.634.892-.628,2.437.017,4.349l.038.09a11.279,11.279,0,0,0,6.35,5.275,13.727,13.727,0,0,0,3.085.5l.186.016c.556.05,1.152.075,1.774.075,12.382,0,15.581-7.7,16.381-11.017a15.322,15.322,0,0,0,.4-4.17.577.577,0,0,0-.005-.12ZM53.675,42.477a11.147,11.147,0,0,1,4.545-1.14c3.214,0,5.758,2.252,7.561,6.69a15.829,15.829,0,0,1,1.047,4.033c-2.936-.829-8.136,1.747-9,2.194-3.92,1.247-5.736-.541-6.234-1.173a7.376,7.376,0,0,0-.285-4.65c-1.437-3.639.392-5.052,2.37-5.954Zm-3.108,12.85a7.533,7.533,0,0,0,.518-.9,6.1,6.1,0,0,0,4.23,1.563,9.644,9.644,0,0,0,2.963-.506.671.671,0,0,0,.1-.042c2.582-1.345,7.056-2.978,8.558-1.918a14,14,0,0,1-.377,3.6c-.006.026-.015.055-.021.082-1.428-.4-4.89-.8-10.6,1.936-1.954.937-3.641,1.12-5.013.545a4.974,4.974,0,0,1-2.4-2.359,7.35,7.35,0,0,0,2.042-2Zm-.77,11.74-.186-.017a12.8,12.8,0,0,1-2.789-.441,10.1,10.1,0,0,1-5.573-4.586c-.562-1.691-.46-2.721-.174-3.123s1.206-.57,2.381-.414a7.471,7.471,0,0,0,3.764-.478c.039.213.081.454.118.714a8.332,8.332,0,0,0,3.492,5.634c1.349.93,2.261,1.769,2.3,2.724-.539.035-1.094.057-1.677.057S50.314,67.112,49.8,67.066Zm4.644-.1c-.105-1.777-1.859-2.99-2.868-3.687a6.986,6.986,0,0,1-2.535-3.216,5.512,5.512,0,0,0,1.362.829c1.736.735,3.789.545,6.1-.566,5.367-2.575,8.505-2.173,9.652-1.86-1.09,3-4,7.557-11.715,8.5Zm0,0" transform="translate(-36.911 -37.41)" fill="#29339b"/>
</svg>
