<svg id="Group_233" data-name="Group 233" xmlns="http://www.w3.org/2000/svg" width="33.648" height="33.649" viewBox="0 0 33.648 33.649">
  <g id="Group_232" data-name="Group 232">
    <path id="Path_1024" data-name="Path 1024" d="M278.086,271.8l-.388.388a.561.561,0,0,0,.793.793l.388-.388a.561.561,0,0,0-.793-.793Z" transform="translate(-259.292 -253.777)" fill="#29339b"/>
    <path id="Path_1025" data-name="Path 1025" d="M325.9,224.371a.561.561,0,0,0-.543.148l-.388.388a.561.561,0,0,0,.794.793l.388-.388a.561.561,0,0,0-.251-.941Z" transform="translate(-303.458 -209.606)" fill="#29339b"/>
    <path id="Path_1026" data-name="Path 1026" d="M231.39,318.892a.561.561,0,0,0-.542.145l-.388.388a.561.561,0,1,0,.793.793l.388-.388a.561.561,0,0,0-.251-.938Z" transform="translate(-215.159 -297.914)" fill="#29339b"/>
    <path id="Path_1027" data-name="Path 1027" d="M267.072,213.538a.561.561,0,0,0-.793-.793l-.388.388a.561.561,0,0,0,.793.793Z" transform="translate(-248.26 -198.608)" fill="#29339b"/>
    <path id="Path_1028" data-name="Path 1028" d="M219.829,260.78a.561.561,0,0,0-.793-.793l-.388.388a.561.561,0,0,0,.793.793Z" transform="translate(-204.123 -242.745)" fill="#29339b"/>
    <path id="Path_1029" data-name="Path 1029" d="M33.643,11.236a2.617,2.617,0,0,0-1.055-1.913,16.674,16.674,0,0,0-2.068-1.3.535.535,0,0,0-.063-.1L25.8,3.269a2.14,2.14,0,0,0-1.122-.514,4.012,4.012,0,0,0-.965-1.573,4.313,4.313,0,0,0-6.088.154,4.61,4.61,0,0,0-.445.525,3.787,3.787,0,0,0-4.064.879,3.9,3.9,0,0,0-.984,1.666A1.671,1.671,0,0,0,10.48,5.94,4.093,4.093,0,0,0,6.57,6.956,4.029,4.029,0,0,0,5.45,10.3l-.323.061a1.667,1.667,0,0,0-1.075.7A1.647,1.647,0,0,0,3.79,12.31l.049.258a3.92,3.92,0,0,0-1.485.932,3.794,3.794,0,0,0-.9,4.017c-.038.036-.08.067-.117.1a4.314,4.314,0,0,0-.154,6.088,4,4,0,0,0,1.574.967A2.141,2.141,0,0,0,3.27,25.8l4.658,4.657a.531.531,0,0,0,.1.063,16.674,16.674,0,0,0,1.3,2.068,2.614,2.614,0,0,0,1.909,1.055q.1.007.2.007a2.623,2.623,0,0,0,1.855-.77L32.879,13.283A2.617,2.617,0,0,0,33.643,11.236ZM24.59,5.677l.01-.026A1.506,1.506,0,0,0,24.66,5.5a4.39,4.39,0,0,0,.227-1.51c.071.039.119.073.119.073l2.8,2.8a17.576,17.576,0,0,0-3.415-.751,4.455,4.455,0,0,0,.2-.437ZM17.556,3.551a3.4,3.4,0,0,1,.861-1.421,3.193,3.193,0,0,1,4.5-.154,3.059,3.059,0,0,1,.667,3.2.791.791,0,0,0-.04.1l0,0a3.191,3.191,0,0,1-.215.455.549.549,0,0,0-.1.286,17.588,17.588,0,0,0-5.1.478.535.535,0,0,0-.035-.06.733.733,0,0,0-.069-.082l-.065-.088a.561.561,0,0,0-.045-.066.948.948,0,0,1-.092-.147.56.56,0,0,0-.044-.075c-.008-.016-.028-.053-.038-.068a.553.553,0,0,0-.033-.082A3.094,3.094,0,0,1,17.556,3.551Zm-3.648-.017a2.685,2.685,0,0,1,2.719-.692c-.052.126-.1.251-.143.381a4.381,4.381,0,0,0-.189,1.4l-3-.165A2.815,2.815,0,0,1,13.908,3.533ZM11.6,6.034a.549.549,0,0,1,.577-.512l4.31.237a4.037,4.037,0,0,0,.2.525.963.963,0,0,0,.1.212,1.224,1.224,0,0,0,.061.106,2.129,2.129,0,0,0,.135.216,15.851,15.851,0,0,0-5.667,3.2ZM7.363,7.749h0A2.991,2.991,0,0,1,10.4,7.086L10.234,9.4,6.551,10.1A2.907,2.907,0,0,1,7.363,7.749ZM4.979,11.7a.551.551,0,0,1,.356-.234l4.818-.9-.046.65a15.836,15.836,0,0,0-3.288,5.769,2.084,2.084,0,0,0-.215-.136.511.511,0,0,0-.078-.044,1.1,1.1,0,0,0-.24-.118,4.034,4.034,0,0,0-.569-.216L4.892,12.1A.534.534,0,0,1,4.979,11.7ZM6.6,17.512l-.042.064v-.017ZM3.147,14.294a2.815,2.815,0,0,1,.9-.6l.491,2.6a4.393,4.393,0,0,0-1.316.191,4.468,4.468,0,0,0-.816.351A2.7,2.7,0,0,1,3.147,14.294Zm-1.17,8.623a3.193,3.193,0,0,1,.154-4.5h0a3.4,3.4,0,0,1,1.422-.861,3.1,3.1,0,0,1,2.274.154.6.6,0,0,0,.086.034c.013.009.05.027.065.035a.6.6,0,0,0,.073.046.952.952,0,0,1,.147.092.562.562,0,0,0,.1.064l0,0,.074.056a.55.55,0,0,0,.06.052.525.525,0,0,0,.064.04,17.588,17.588,0,0,0-.478,5.1.554.554,0,0,0-.283.1,3.224,3.224,0,0,1-.455.215,1.128,1.128,0,0,0-.14.055A3.045,3.045,0,0,1,1.977,22.917Zm2.1,2.1a1.135,1.135,0,0,1-.079-.124c.027,0,.054,0,.081,0a4.5,4.5,0,0,0,1.448-.243c.047-.016.1-.036.134-.053l.021-.008h0a4.468,4.468,0,0,0,.437-.2,17.573,17.573,0,0,0,.751,3.415ZM32.086,12.49,12.491,32.084a1.5,1.5,0,0,1-2.264-.165C5.635,25.7,6.167,16.707,11.438,11.436s14.268-5.8,20.483-1.211a1.493,1.493,0,0,1,.6,1.091h0A1.5,1.5,0,0,1,32.086,12.49Z" transform="translate(-0.001 0.001)" fill="#29339b"/>
    <path id="Path_1030" data-name="Path 1030" d="M48.728,325.157a.561.561,0,0,0-.941-.251l-.388.388a.561.561,0,0,0,.4.958h0a.56.56,0,0,0,.4-.164l.388-.388A.561.561,0,0,0,48.728,325.157Z" transform="translate(-44.129 -303.396)" fill="#29339b"/>
    <path id="Path_1031" data-name="Path 1031" d="M47.792,284.786a.561.561,0,0,0,.793-.793L48.2,283.6a.561.561,0,0,0-.793.793Z" transform="translate(-44.134 -264.81)" fill="#29339b"/>
    <path id="Path_1032" data-name="Path 1032" d="M325.334,48.779h0a.56.56,0,0,0,.4-.164l.388-.388a.561.561,0,0,0-.794-.793l-.388.388a.561.561,0,0,0,.4.957Z" transform="translate(-303.427 -44.164)" fill="#29339b"/>
    <path id="Path_1033" data-name="Path 1033" d="M283.992,48.586a.561.561,0,0,0,.793-.793L284.4,47.4a.561.561,0,1,0-.793.793Z" transform="translate(-264.809 -44.135)" fill="#29339b"/>
  </g>
</svg>
