<svg xmlns="http://www.w3.org/2000/svg" viewBox="0 0 512 452.27"><g id="Layer_2" data-name="Layer 2"><g id="Layer_1-2" data-name="Layer 1"><path d="M512,281.6A25.62,25.62,0,0,0,486.4,256H25.6a25.58,25.58,0,0,0-.48,51.15c11,14.72,30.72,29.83,51.63,45.77,36,27.46,76.85,58.59,76.85,90.81v8.54H358.4v-8.54c0-32.22,40.82-63.35,76.85-90.81,20.9-15.94,40.63-31.05,51.63-45.77A25.6,25.6,0,0,0,512,281.6ZM25.6,273.07H486.4a8.53,8.53,0,1,1,0,17.06H25.6a8.53,8.53,0,1,1,0-17.06ZM170,435.2a60.5,60.5,0,0,0-2-8.54H344a61.92,61.92,0,0,0-2,8.54ZM424.9,339.35c-27.67,21.1-57.9,44.18-73.29,70.25H160.39C145,383.53,114.77,360.45,87.1,339.35c-14.79-11.27-29-22.12-39.25-32.15H464.14C453.91,317.23,439.69,328.07,424.9,339.35Z" style="fill:#29339b"/><path d="M85.33,247.46a8.53,8.53,0,0,0,8.54-8.53,76.88,76.88,0,0,1,76.8-76.8h17.06a8.54,8.54,0,1,0,0-17.07H170.67A94,94,0,0,0,76.8,238.93,8.52,8.52,0,0,0,85.33,247.46Z" style="fill:#29339b"/><path d="M213.33,196.27H170.67A42.71,42.71,0,0,0,128,238.93a8.54,8.54,0,0,0,17.07,0,25.63,25.63,0,0,1,25.6-25.6h42.67a8.53,8.53,0,1,0,0-17.06Z" style="fill:#29339b"/><path d="M204.8,187.73a8.54,8.54,0,0,0,0-17.07H170.67a68.35,68.35,0,0,0-68.27,68.27,8.54,8.54,0,0,0,17.07,0,51.25,51.25,0,0,1,51.2-51.2Z" style="fill:#29339b"/><path d="M213.33,221.86H170.67a8.54,8.54,0,1,0,0,17.07h42.66a8.54,8.54,0,1,0,0-17.07Z" style="fill:#29339b"/><path d="M273.07,145.07a8.53,8.53,0,1,0,0,17.06H332.8a76.88,76.88,0,0,1,76.8,76.8,8.54,8.54,0,0,0,17.07,0,94,94,0,0,0-93.87-93.86Z" style="fill:#29339b"/><path d="M358.4,238.93a8.53,8.53,0,1,0,17.06,0,42.71,42.71,0,0,0-42.66-42.66H290.13a8.53,8.53,0,1,0,0,17.06H332.8A25.64,25.64,0,0,1,358.4,238.93Z" style="fill:#29339b"/><path d="M392.53,247.46a8.53,8.53,0,0,0,8.54-8.53,68.35,68.35,0,0,0-68.27-68.27H281.6a8.54,8.54,0,0,0,0,17.07h51.2a51.25,51.25,0,0,1,51.2,51.2A8.52,8.52,0,0,0,392.53,247.46Z" style="fill:#29339b"/><path d="M290.13,221.86a8.54,8.54,0,0,0,0,17.07H332.8a8.54,8.54,0,0,0,0-17.07Z" style="fill:#29339b"/><path d="M238.93,247.46a8.53,8.53,0,0,0,8.54-8.53c0-105.79-46.41-128-85.34-128a25.62,25.62,0,0,0-25.59,25.6,8.53,8.53,0,1,0,17.06,0,8.54,8.54,0,0,1,8.53-8.53c45.94,0,68.27,36.28,68.27,110.93A8.52,8.52,0,0,0,238.93,247.46Z" style="fill:#29339b"/><path d="M110.93,162.13a8.53,8.53,0,0,0,8.54-8.53v-8.53a42.71,42.71,0,0,1,42.66-42.67c84.72,0,93.87,95.48,93.87,136.53a8.54,8.54,0,0,0,17.07,0c0-96.18-41.47-153.6-110.94-153.6a59.81,59.81,0,0,0-59.73,59.74v8.53A8.52,8.52,0,0,0,110.93,162.13Z" style="fill:#29339b"/><path d="M281.6,136.53a34.13,34.13,0,1,0-34.13-34.13A34.16,34.16,0,0,0,281.6,136.53Zm0-51.2a17.07,17.07,0,1,1-17.07,17.07A17.09,17.09,0,0,1,281.6,85.33Z" style="fill:#29339b"/><path d="M217.6,93.86a38.4,38.4,0,1,0-38.4-38.4A38.44,38.44,0,0,0,217.6,93.86Zm0-59.73a21.34,21.34,0,1,1-21.33,21.33A21.35,21.35,0,0,1,217.6,34.13Z" style="fill:#29339b"/><path d="M324.27,110.93A34.13,34.13,0,1,0,358.4,76.8,34.17,34.17,0,0,0,324.27,110.93ZM358.4,93.86a17.07,17.07,0,1,1-17.07,17.07A17.08,17.08,0,0,1,358.4,93.86Z" style="fill:#29339b"/><path d="M307.2,68.27a34.14,34.14,0,1,0-34.13-34.14A34.17,34.17,0,0,0,307.2,68.27Zm0-51.2a17.07,17.07,0,1,1-17.07,17.06A17.08,17.08,0,0,1,307.2,17.07Z" style="fill:#29339b"/></g></g></svg>