<svg id="Group_247" data-name="Group 247" xmlns="http://www.w3.org/2000/svg" width="33.702" height="33.648" viewBox="0 0 33.702 33.648">
  <g id="Group_246" data-name="Group 246">
    <path id="Path_1046" data-name="Path 1046" d="M32.712,20.011h-.185a8.094,8.094,0,0,0-7.672-7.281l8.157-5.966A1.683,1.683,0,1,0,31.023,4.05L19.2,12.693a.534.534,0,0,0-.053.034l-.91.665L26.723,3.168a1.682,1.682,0,1,0-2.586-2.152l-7.731,9.318a11.079,11.079,0,0,0-4.61-.994A11.238,11.238,0,0,0,.586,20.109a.98.98,0,0,0-.5.5.989.989,0,0,0,.108.974l.18.442A20.394,20.394,0,0,0,8.425,31.56v.872a1.624,1.624,0,0,0,1.622,1.622H23.655a1.623,1.623,0,0,0,1.621-1.622V31.56a20.387,20.387,0,0,0,8.054-9.533l.183-.444a.989.989,0,0,0-.8-1.571Zm-1.311,0H30.272a5.871,5.871,0,0,0-8.425-4.443c-.076-.154-.159-.308-.244-.46l1.587-1.161a7.23,7.23,0,0,1,1.244-.115A6.987,6.987,0,0,1,31.4,20.011ZM24.434,17.2a3.606,3.606,0,0,0-1.8.476A10.9,10.9,0,0,0,22.29,16.6a4.717,4.717,0,0,1,2.145-.524,4.769,4.769,0,0,1,4.7,3.932H27.978A3.674,3.674,0,0,0,24.434,17.2ZM26.8,20.011H23a11.228,11.228,0,0,0-.113-1.138,2.467,2.467,0,0,1,1.546-.547A2.537,2.537,0,0,1,26.8,20.011Zm-4.911,0H20.764a9.022,9.022,0,0,0-.988-3.567l.916-.67c.14.259.27.521.386.793A9.885,9.885,0,0,1,21.891,20.011Zm-2.127-6.342a.612.612,0,0,0,.053-.035l11.871-8.68a.544.544,0,0,1,.41-.1.554.554,0,0,1,.366.221.57.57,0,0,1,.113.334.563.563,0,0,1-.231.451L18.7,15.841,17.41,16.863a6.758,6.758,0,0,0-.735-.935Zm-.125,6.342H18.506a6.708,6.708,0,0,0-.546-2.151l.9-.715A7.9,7.9,0,0,1,19.64,20.011Zm-7.845-1.685a2.236,2.236,0,0,0-2.167,1.685H8.471a3.371,3.371,0,0,1,6.647,0H13.962A2.236,2.236,0,0,0,11.795,18.326Zm.973,1.685H10.822a1.123,1.123,0,0,1,1.945,0ZM8.3,16.161a5.581,5.581,0,0,1,4.227-1.153l-.9,1.079a4.5,4.5,0,0,0-4.29,3.924H6.207A5.581,5.581,0,0,1,8.3,16.161Zm-3.215,3.85H3.952a7.87,7.87,0,0,1,10.187-6.947l-.789.951a6.728,6.728,0,0,0-8.266,6Zm9.856-2.642.716-.863a5.606,5.606,0,0,1,1.729,3.506H16.25A4.481,4.481,0,0,0,14.94,17.369ZM25,1.731a.559.559,0,0,1,.858.717L14.044,16.689a4.462,4.462,0,0,0-1.08-.45ZM11.8,10.462a9.973,9.973,0,0,1,3.864.77l-.76.916A8.954,8.954,0,0,0,2.838,20.011H1.7A10.123,10.123,0,0,1,11.8,10.462ZM32.29,21.6a19.261,19.261,0,0,1-7.744,9.082H23.029a.562.562,0,0,0,0,1.123h1.124v.625a.5.5,0,0,1-.5.5H10.047a.5.5,0,0,1-.5-.5v-.625H14.6a.562.562,0,0,0,0-1.123H9.154A19.257,19.257,0,0,1,1.41,21.6l-.19-.465H32.482Z" transform="translate(-0.001 -0.405)" fill="#29339b"/>
    <path id="Path_1047" data-name="Path 1047" d="M372.176,339.055a13.907,13.907,0,0,0,5.288-5.882.561.561,0,1,0-1.033-.439,12.651,12.651,0,0,1-4.787,5.333h0l.251.5Z" transform="translate(-347.178 -310.538)" fill="#29339b"/>
  </g>
</svg>
