<svg xmlns="http://www.w3.org/2000/svg" width="25.461" height="33.648" viewBox="0 0 25.461 33.648">
  <g id="_047-fries" data-name="047-fries" transform="translate(0 0)">
    <path id="Path_987" data-name="Path 987" d="M23.335,28.462c.116-.4.231-.8.337-1.2.094-.355.181-.71.268-1.066q.111-.458.216-.918.14-.624.266-1.253c.045-.225.087-.451.128-.677.09-.485.178-.97.254-1.457.014-.09.026-.181.039-.272A53.3,53.3,0,0,0,25.46,13.2v-.091a2.544,2.544,0,0,0-1.18-2.273V7.477H21.164V5.608H18.048V3.115H14.933V0H10.571V3.115H7.455V5.608H4.34V7.477H1.224v3.33A2.533,2.533,0,0,0,0,13.106v.107A54.8,54.8,0,0,0,.62,21.5c.021.143.04.286.063.429.074.465.157.927.242,1.39.046.252.093.5.143.753q.122.606.256,1.21c.072.323.148.644.226.965.084.347.169.695.26,1.04.108.41.224.818.341,1.225.077.266.15.533.23.8q.311,1.024.661,2.035l.183.527.012,0a3,3,0,0,0,2.622,1.781H19.6a2.863,2.863,0,0,0,2.77-2.128l.03-.021.034-.206c.235-.671.455-1.346.664-2.024.081-.267.156-.537.234-.806Zm.3-7.218c-.019.13-.037.261-.057.391-.071.457-.151.911-.234,1.366q-.064.346-.131.69-.119.6-.251,1.2c-.069.31-.144.62-.219.929-.08.333-.158.668-.245,1-.167.636-.343,1.269-.535,1.9-.041.133-.087.263-.128.4-.14.448-.288.893-.44,1.339-.214-.04-.482-.092-.747-.144a45.639,45.639,0,0,0-7.9-1.028,48.867,48.867,0,0,0-8.7,1.123q-.206-.611-.4-1.225c-.05-.161-.1-.32-.153-.48-.19-.634-.366-1.27-.532-1.909-.081-.313-.153-.629-.229-.943-.08-.331-.159-.664-.233-1-.084-.385-.163-.771-.239-1.157-.05-.252-.1-.5-.143-.757-.079-.433-.155-.866-.222-1.3-.027-.173-.051-.346-.076-.519q-.366-2.5-.5-5.038c0-.035-.005-.071-.006-.107a1.011,1.011,0,0,1,.958-.836H4.059A2.534,2.534,0,0,1,6.129,16.2a9.005,9.005,0,0,0,6.6,3.19,9.01,9.01,0,0,0,6.6-3.19,2.534,2.534,0,0,1,2.07-1.063h1.781a1.036,1.036,0,0,1,.967.868l0,.06c-.082,1.736-.254,3.463-.507,5.174ZM1.248,13.215v-.109a1.268,1.268,0,0,1,.76-1.288,1.03,1.03,0,0,1,.27-.04H4.06a2.526,2.526,0,0,1,.725.113h0a2.621,2.621,0,0,1,1.362.976h0c.01.014.022.025.032.039a6.136,6.136,0,0,0,1.275,1.265v.009l.269.186c.021.014.043.026.063.04a10.024,10.024,0,0,0,2.783,1.287v.015l.482.112.049.009c.277.063.55.113.813.147l.037,0a6.419,6.419,0,0,0,.776.051,6.531,6.531,0,0,0,.815-.055l.027,0a8.616,8.616,0,0,0,.875-.163l.009,0,.479-.114v-.015a9.982,9.982,0,0,0,2.774-1.3c.025-.017.051-.031.076-.049l.265-.186v-.01a6.118,6.118,0,0,0,1.243-1.244c.007-.009.015-.016.021-.026a2.615,2.615,0,0,1,1.4-.988,2.516,2.516,0,0,1,.689-.1h1.782a1.053,1.053,0,0,1,.294.05,1.282,1.282,0,0,1,.736,1.283V13.2c0,.315-.01.629-.014.945a2.139,2.139,0,0,0-1.017-.256H21.4a3.782,3.782,0,0,0-3.088,1.59,7.725,7.725,0,0,1-5.585,2.663,7.724,7.724,0,0,1-5.581-2.663,3.78,3.78,0,0,0-3.088-1.59H2.278a2.139,2.139,0,0,0-1.013.254c0-.31-.018-.621-.017-.933ZM23.034,8.723v1.808H21.4q-.118,0-.237.008V8.723ZM19.918,6.854v3.985a3.746,3.746,0,0,0-1.6,1.282c-.011.014-.023.028-.034.043a2.381,2.381,0,0,1-.232.272V6.854ZM16.8,4.361v9.12a7.07,7.07,0,0,1-1.869.684v-9.8ZM11.818,1.246h1.869V14.694c-.157.027-.305.047-.451.061l-.051,0a4.893,4.893,0,0,1-.876,0l-.039,0c-.146-.014-.3-.032-.453-.059V1.246ZM8.7,4.361h1.869v9.81A7.069,7.069,0,0,1,8.7,13.508ZM5.586,6.854H7.456v5.619a2.224,2.224,0,0,1-.282-.318c-.008-.011-.018-.022-.026-.034a3.744,3.744,0,0,0-1.562-1.263V7.477s0-.623,0-.623ZM2.471,8.723H4.34v1.819q-.141-.012-.28-.012H2.471ZM19.6,32.4H5.858a1.773,1.773,0,0,1-1.37-.81,47.478,47.478,0,0,1,8.265-1.059,44.705,44.705,0,0,1,7.66,1l.565.11A1.625,1.625,0,0,1,19.6,32.4Zm0,0" transform="translate(-0.001 0)" fill="#29339b"/>
    <path id="Path_988" data-name="Path 988" d="M127.9,312.891c-2.748,0-4.985,1.677-4.985,3.739s2.237,3.739,4.985,3.739,4.985-1.677,4.985-3.739S130.652,312.891,127.9,312.891Zm0,6.231c-2.026,0-3.739-1.142-3.739-2.493s1.712-2.492,3.739-2.492,3.739,1.142,3.739,2.492S129.93,319.122,127.9,319.122Zm0,0" transform="translate(-114.84 -292.328)" fill="#29339b"/>
  </g>
</svg>
