<svg id="_213-glass" data-name="213-glass" xmlns="http://www.w3.org/2000/svg" width="16.41" height="33.648" viewBox="0 0 16.41 33.648">
  <path id="Path_1000" data-name="Path 1000" d="M99.579,238.622a.59.59,0,1,1-.59-.59A.59.59,0,0,1,99.579,238.622Zm0,0" transform="translate(-91.964 -222.388)" fill="#29339b"/>
  <path id="Path_1001" data-name="Path 1001" d="M30.813,214.485a.59.59,0,1,1-.59-.59A.59.59,0,0,1,30.813,214.485Zm0,0" transform="translate(-27.718 -199.838)" fill="#29339b"/>
  <path id="Path_1002" data-name="Path 1002" d="M117.544,283.532a.59.59,0,1,1-.59-.59A.59.59,0,0,1,117.544,283.532Zm0,0" transform="translate(-108.749 -264.347)" fill="#29339b"/>
  <path id="Path_1003" data-name="Path 1003" d="M187.716,234.7a.59.59,0,1,1-.59-.59A.59.59,0,0,1,187.716,234.7Zm0,0" transform="translate(-174.309 -218.72)" fill="#29339b"/>
  <path id="Path_1004" data-name="Path 1004" d="M53.267,252.661a.59.59,0,1,1-.59-.59A.59.59,0,0,1,53.267,252.661Zm0,0" transform="translate(-48.696 -235.505)" fill="#29339b"/>
  <path id="Path_1005" data-name="Path 1005" d="M135.509,229.637a.59.59,0,1,1-.59-.59A.59.59,0,0,1,135.509,229.637Zm0,0" transform="translate(-125.533 -213.994)" fill="#29339b"/>
  <path id="Path_1006" data-name="Path 1006" d="M9.3,29.523V21.81a8.188,8.188,0,0,0,7.522-9.4L15.2,1.76a.543.543,0,0,0-.1-.236C14.326.021,8.951,0,8.705,0s-5.574.02-6.386,1.5a.59.59,0,0,0-.114.268L.7,11.7a.879.879,0,0,0-.048.279.2.2,0,0,0,0,.02l-.063.412a8.188,8.188,0,0,0,7.522,9.4v7.713c-1.889.042-6.493.322-6.493,2.059,0,1.966,5.9,2.066,7.084,2.066s7.084-.1,7.084-2.066c0-1.738-4.6-2.018-6.494-2.06ZM13.728,1.871l-.017.005c-.078.025-.168.051-.27.077l-.027.006c-.106.027-.224.053-.357.079l-.013,0c-.131.026-.278.051-.435.075l-.072.011c-.158.024-.328.047-.511.068L11.95,2.2c-.188.021-.386.041-.6.058l-.024,0c-.215.018-.447.032-.689.046l-.132.007q-.361.018-.762.03l-.145,0c-.284.006-.578.011-.892.011s-.605,0-.888-.011l-.155,0q-.4-.01-.76-.029l-.132-.007c-.238-.013-.466-.028-.678-.045H6.077c-.217-.017-.417-.038-.606-.06l-.1-.011c-.179-.021-.347-.043-.5-.066l-.073-.011c-.153-.024-.3-.048-.425-.074l-.009,0c-.132-.026-.248-.053-.354-.079L3.959,1.95c-.1-.025-.189-.051-.266-.075l-.01,0a14.813,14.813,0,0,1,5.022-.69,14.843,14.843,0,0,1,5.023.69ZM3.22,2.955l.023.007c.1.038.213.074.336.11l.012,0c.125.036.262.07.412.1l.027.006c.146.032.306.062.476.091l.065.011c.167.027.349.052.542.077l.093.011c.195.023.4.044.623.063l.111.009c.226.018.466.034.721.047l.113.005c.266.013.545.024.843.031l.089,0c.315.006.646.011,1,.011s.684,0,1-.011l.089,0c.3-.007.577-.018.844-.031l.112-.005c.255-.014.495-.03.721-.047l.111-.009q.331-.028.623-.063l.093-.011c.193-.024.374-.049.542-.077l.064-.011c.17-.029.33-.059.477-.091l.027-.006c.149-.033.287-.068.412-.1l.011,0c.124-.035.234-.073.337-.11l.022-.007,1.163,7.675a21.724,21.724,0,0,0-6.667-.948,21.925,21.925,0,0,0-6.627.931Zm12.207,9c-.578.314-2.621.794-6.74.794s-6.162-.48-6.74-.794c.642-.439,3.13-1.095,6.74-1.095S14.784,11.518,15.427,11.957ZM3.38,18.217a7.008,7.008,0,0,1-1.67-5.1c1.518.651,4.417.818,6.977.818,2.582,0,5.505-.171,7.013-.834A7.018,7.018,0,0,1,3.38,18.217ZM8.705,32.468c-3.3,0-5.285-.535-5.811-.885.494-.329,2.275-.82,5.22-.88v.668a.59.59,0,0,0,1.181,0V30.7c2.946.059,4.726.551,5.22.88-.526.35-2.511.885-5.811.885Zm0,0" transform="translate(-0.501 -0.001)" fill="#29339b"/>
</svg>
