<svg xmlns="http://www.w3.org/2000/svg" width="22.286" height="26" viewBox="0 0 22.286 26">
  <path id="_214-glass" data-name="214-glass" d="M22.272,2.04c0-.015,0-.031,0-.046a1,1,0,0,0,.01-.136c0-.673-.594-1.133-3.629-1.49A67.92,67.92,0,0,0,11.142,0,67.877,67.877,0,0,0,3.628.367C.593.724,0,1.184,0,1.857a1.07,1.07,0,0,0,.009.134c0,.016,0,.033,0,.048L.793,11.4a.032.032,0,0,0,0,.008l.828,9.937s0,.008,0,.012l.232,2.789c0,.654.567,1.107,3.461,1.489A47.413,47.413,0,0,0,11.142,26a47.412,47.412,0,0,0,5.825-.368c2.895-.382,3.461-.836,3.459-1.438l1.069-12.828c0-.031.007-.062.008-.093ZM2.287,14.421l-.178-2.129c.288.077.636.15,1.054.218l.077.013.167.027a1.852,1.852,0,0,0,.416,1.794l1.984,2.123a1.843,1.843,0,0,0,1.294.587h.081a1.832,1.832,0,0,0,.485,1.135l1.984,2.123a1.857,1.857,0,0,0,2.624.089L14.4,18.417a1.86,1.86,0,0,0,.089-2.625l-.3-.318a1.833,1.833,0,0,0,.879-.455l2.123-1.984a1.86,1.86,0,0,0,.26-.3,17.877,17.877,0,0,0,2.721-.429l-.71,8.52a40.012,40.012,0,0,1-8.322.775,40.013,40.013,0,0,1-8.322-.775ZM20.941,3.1l-.59,7.086a19.64,19.64,0,0,0-3.794-.552L15.3,8.287A1.859,1.859,0,0,0,12.674,8.2L11.341,9.443h-.149c-1,0-1.995.02-2.954.056a1.847,1.847,0,0,0-2.029.1,21.184,21.184,0,0,0-4.276.6L1.343,3.1c1.442.413,4.312.614,9.8.614s8.356-.2,9.8-.614ZM3.9,11.368l-.043-.006c-.352-.048-.642-.1-.882-.143.429-.082,1-.168,1.74-.246l-.309.289-.162.15h0C4.115,11.4,4,11.383,3.9,11.368Zm2.986-.728a.621.621,0,0,1,.875.029l.985,1.054c-1.061-.033-2.019-.085-2.859-.151l.339-.317Zm5.125-.124L13.519,9.1a.62.62,0,0,1,.875.029l1.984,2.124a.6.6,0,0,1,.111.182.712.712,0,0,1,.025.075.613.613,0,0,1,.01.061c-1.408.111-3.175.188-5.279.189,0,0-.006-.007-.008-.012s0-.011,0-.015a.618.618,0,0,1,.161-.648Zm5.636.459c.727.079,1.286.165,1.706.246-.38.074-.894.155-1.584.231a.063.063,0,0,1,0-.011,1.847,1.847,0,0,0-.115-.45S17.645,10.98,17.642,10.975Zm-7.5-.234c-.018.038-.032.076-.048.115a1.881,1.881,0,0,0-.066.2c-.012.043-.022.085-.031.129,0,.021-.012.041-.015.063L9.477,10.7c.229,0,.46-.009.691-.012C10.16,10.7,10.155,10.723,10.146,10.741ZM4.7,12.71c1.8.184,3.837.252,5.163.276a.618.618,0,0,1-.149.682L7.586,15.651a.624.624,0,0,1-.443.165.616.616,0,0,1-.431-.194L4.727,13.5A.613.613,0,0,1,4.7,12.71ZM8.6,16.468l2.123-1.984a.615.615,0,0,1,.422-.165h.022a.617.617,0,0,1,.431.194l1.984,2.123a.62.62,0,0,1-.03.875L11.431,19.5a.623.623,0,0,1-.875-.03L8.572,17.343A.62.62,0,0,1,8.6,16.468Zm4.749-2.384-1.023-1.095c.833-.014,2-.045,3.226-.116l-1.328,1.241A.62.62,0,0,1,13.35,14.084ZM11.142,1.238a51.823,51.823,0,0,1,9.08.619,51.851,51.851,0,0,1-9.08.619,51.852,51.852,0,0,1-9.08-.619A51.822,51.822,0,0,1,11.142,1.238Zm0,23.524c-3.507,0-7.251-.467-8.066-.864l-.149-1.78a44.632,44.632,0,0,0,8.214.715,44.646,44.646,0,0,0,8.216-.716L19.21,23.9c-.81.4-4.558.864-8.068.864Zm0,0" transform="translate(0.001 0)" fill="#29339b"/>
</svg>
