<svg id="_095-salad" data-name="095-salad" xmlns="http://www.w3.org/2000/svg" width="38.314" height="33.648" viewBox="0 0 38.314 33.648">
  <path id="Path_989" data-name="Path 989" d="M37.9,16.016a1.537,1.537,0,0,0-1.119-.486h-.126a6.443,6.443,0,0,0-3.01-9.161,6.466,6.466,0,0,0-12.931,0,1.759,1.759,0,0,0-1.854.7L18.7,7.3a.478.478,0,0,1-.59.158l-.254-.118a1.771,1.771,0,0,0-2.509,1.447l-.025.279a1.619,1.619,0,0,1-.111.388.476.476,0,0,1-.27-.388l-.025-.277A1.728,1.728,0,0,0,14.157,7.5l2.037-2.89a2.588,2.588,0,1,0-4.232-2.982L8.235,6.923a2.57,2.57,0,0,0-.292.565.4.4,0,0,1-.19-.034L7.5,7.336A1.771,1.771,0,0,0,4.991,8.783l-.025.279a.477.477,0,0,1-.432.432l-.278.025a1.771,1.771,0,0,0-1.448,2.509l.117.253a.477.477,0,0,1-.158.591l-.229.161a1.749,1.749,0,0,0-.394,2.5H1.536a1.537,1.537,0,0,0-1.119.487A1.554,1.554,0,0,0,0,17.179c.383,5.66,3.983,8.5,9.272,11.028a3.015,3.015,0,0,1,1.373,1.322,1.954,1.954,0,0,1-.126,1.89,1.471,1.471,0,0,0,1.261,2.231H26.531a1.472,1.472,0,0,0,1.254-2.243,1.946,1.946,0,0,1-.119-1.877,3.01,3.01,0,0,1,1.373-1.322c5.287-2.526,8.888-5.367,9.272-11.027a1.561,1.561,0,0,0-.415-1.163Zm-1.66-3.722a5.159,5.159,0,0,1-1.144,3.236H31.707V12.941a.647.647,0,0,0-1.294,0V15.53H28.128a1.791,1.791,0,0,0,.139-.224l.006-.01a1.8,1.8,0,0,0,.131-.347c.008-.03.015-.06.022-.091a1.735,1.735,0,0,0-.705-1.823l-.149-.106c.052,0,.1-.012.153-.015.078-.006.156-.014.232-.024q.191-.024.379-.058c.074-.014.148-.026.221-.042.135-.029.267-.065.4-.1.059-.017.118-.03.177-.049.184-.059.365-.125.542-.2.049-.021.1-.045.144-.067.128-.058.256-.117.379-.183.069-.037.137-.077.2-.117.1-.058.2-.116.293-.179.071-.046.141-.094.21-.144.087-.062.173-.127.258-.193s.138-.108.2-.165.156-.139.232-.21.131-.121.194-.184.139-.151.206-.227c.129-.144.251-.294.366-.45.041-.055.084-.108.124-.165.07-.1.135-.207.2-.312.032-.053.066-.106.1-.16.065-.113.125-.229.184-.346.023-.046.045-.092.067-.14.06-.129.117-.259.168-.392.011-.029.021-.058.032-.087a6.4,6.4,0,0,0,.284-.974,5.179,5.179,0,0,1,2.717,4.548Zm-9.059-11a5.183,5.183,0,0,1,5.177,5.177c0,.1-.008.194-.014.29a.018.018,0,0,0,0,.006,5.137,5.137,0,0,1-.482,1.906l-.008.018c-.063.134-.133.263-.208.391l-.027.046c-.069.116-.144.229-.222.338-.017.024-.033.048-.05.071-.073.1-.151.2-.232.289-.025.03-.05.06-.076.089-.076.085-.156.166-.238.246-.034.034-.067.067-.1.1-.078.072-.159.141-.241.208-.042.035-.084.07-.127.1-.08.061-.162.118-.244.175-.05.034-.1.069-.151.1-.081.051-.164.1-.248.144-.057.032-.114.065-.172.094-.082.042-.165.078-.249.115-.064.029-.127.058-.193.084-.082.032-.166.06-.25.088s-.14.049-.212.069-.166.042-.249.062-.153.037-.232.052-.163.025-.244.036-.166.024-.251.032l-.05,0h0c0-.008,0-.016,0-.025a1.775,1.775,0,0,0,.026-.354c0-.038,0-.075-.008-.113a1.818,1.818,0,0,0-.045-.275c-.009-.036-.016-.072-.028-.108a1.75,1.75,0,0,0-.151-.354A1.773,1.773,0,0,0,26,9.521L25.725,9.5a.477.477,0,0,1-.388-.27L26.72,7.844a.647.647,0,1,0-.915-.915l-.923.923a1.644,1.644,0,0,0-.9-.612c-.048-.013-.1-.015-.145-.024a1.694,1.694,0,0,0-.291-.038c-.012,0-.025-.005-.037-.005a1.707,1.707,0,0,0-.221.024c-.046.006-.092.006-.137.015a1.772,1.772,0,0,0-.386.125l-.252.117a.441.441,0,0,1-.2.039h-.011a.469.469,0,0,1-.2-.058A5.126,5.126,0,0,1,22,6.471a5.182,5.182,0,0,1,5.176-5.177ZM16.608,9.179l.025-.279a.477.477,0,0,1,.675-.389l.255.118a1.773,1.773,0,0,0,2.191-.588l.161-.229a.491.491,0,0,1,.78,0l.161.229a1.765,1.765,0,0,0,1.4.744h.019a1.815,1.815,0,0,0,.236-.009c.037,0,.073-.012.11-.019.053-.01.106-.017.158-.031a1.7,1.7,0,0,0,.274-.1L23.3,8.51a.476.476,0,0,1,.675.39L24,9.177a1.771,1.771,0,0,0,1.6,1.6l.278.025a.477.477,0,0,1,.391.675l-.119.256c-.005.012-.007.022-.012.034a1.767,1.767,0,0,0,.091,1.59l.012.02a1.763,1.763,0,0,0,.114.17c.023.03.048.058.073.087s.062.074.1.107a1.66,1.66,0,0,0,.214.181l.23.163a.479.479,0,0,1,0,.781l-.23.162-.006.005a1.724,1.724,0,0,0-.233.2c-.029.029-.053.062-.08.093a1.731,1.731,0,0,0-.11.142c-.013.019-.03.035-.042.054h-8.5a1.828,1.828,0,0,0,.139-.224l.006-.009a1.808,1.808,0,0,0,.131-.349c.008-.03.015-.059.021-.089a1.764,1.764,0,0,0,.046-.375h0a1.809,1.809,0,0,0-.029-.243,1.672,1.672,0,0,0-.022-.179,1.975,1.975,0,0,0-.7-1.026l-.229-.162a.475.475,0,0,1-.158-.589l.118-.254a1.76,1.76,0,0,0,.124-.386c.008-.04.008-.079.014-.119a1.753,1.753,0,0,0,.02-.279c0-.049-.009-.1-.014-.145a1.771,1.771,0,0,0-.041-.248c-.013-.053-.032-.1-.05-.156s-.023-.087-.042-.129c-.011-.025-.03-.044-.043-.068s-.025-.069-.043-.1a1.68,1.68,0,0,0-.122-.162c-.034-.045-.064-.093-.1-.135a1.729,1.729,0,0,0-.261-.231c-.028-.021-.049-.05-.077-.069a2.755,2.755,0,0,0,.143-.626Zm-3.587-6.8A1.294,1.294,0,0,1,15.137,3.87L12.612,7.452h0l-1.2,1.706a1.3,1.3,0,0,1-1.8.312l0,0a1.289,1.289,0,0,1-.241-.229c-.018-.021-.035-.044-.052-.067A1.309,1.309,0,0,1,9.156,8.9c0-.006-.006-.012-.009-.018a1.31,1.31,0,0,1-.074-.32c0-.028,0-.056-.006-.084a1.245,1.245,0,0,1,.226-.811ZM3.512,15.033l-.229-.161a.478.478,0,0,1,0-.781l.228-.161A1.771,1.771,0,0,0,4.1,11.736l-.117-.252a.477.477,0,0,1,.39-.676l.278-.025a1.771,1.771,0,0,0,1.605-1.6L6.28,8.9a.476.476,0,0,1,.675-.39l.255.118a1.691,1.691,0,0,0,.581.151c0,.014.008.027.01.041s0,.023,0,.034c.013.074.04.142.059.213s.039.168.068.25a2.715,2.715,0,0,0,.131.275c.031.061.055.124.091.182a2.581,2.581,0,0,0,.219.289c.033.039.059.083.094.12a2.577,2.577,0,0,0,.4.344,2.623,2.623,0,0,0,.4.229c.044.02.089.036.134.053a2.4,2.4,0,0,0,.3.1c.052.014.1.027.156.036a2.617,2.617,0,0,0,.332.041c.042,0,.083.009.125.01l.032,0a2.629,2.629,0,0,0,.45-.039A2.573,2.573,0,0,0,12.467,9.9l.952-1.351a.456.456,0,0,1,.206.348l.025.277a1.772,1.772,0,0,0,1.6,1.6l.278.025a.667.667,0,0,1,.239.1.819.819,0,0,1,.139.162.474.474,0,0,1,.056.191s0,.006,0,.009a.471.471,0,0,1-.043.215l-.119.254a1.764,1.764,0,0,0-.156.906.083.083,0,0,1,0,.012,1.818,1.818,0,0,0,.051.285,1.764,1.764,0,0,0,.69.989l.157.11.072.051a.48.48,0,0,1,.2.393.47.47,0,0,1-.053.22c-.01.019-.03.031-.043.049a.467.467,0,0,1-.107.121l-.008.006-.221.156a1.774,1.774,0,0,0-.245.213c-.023.024-.042.051-.063.076a1.86,1.86,0,0,0-.139.178c-.007.01-.017.019-.023.03H3.983a1.775,1.775,0,0,0-.472-.5ZM28.481,27.038a4.317,4.317,0,0,0-1.965,1.9,3.251,3.251,0,0,0,.166,3.151.179.179,0,0,1-.153.27H11.783a.17.17,0,0,1-.155-.091.177.177,0,0,1,.009-.191,3.245,3.245,0,0,0,.16-3.14,4.31,4.31,0,0,0-1.965-1.895c-5.018-2.4-8.2-4.9-8.538-9.946a.256.256,0,0,1,.068-.192.23.23,0,0,1,.173-.076H36.778a.234.234,0,0,1,.174.076.254.254,0,0,1,.067.192c-.342,5.051-3.521,7.55-8.538,9.947Zm0,0" transform="translate(0 0)" fill="#29339b"/>
  <path id="Path_990" data-name="Path 990" d="M242.289,371.824h-5.634a.647.647,0,1,0,0,1.294h5.634a.647.647,0,1,0,0-1.294Zm0,0" transform="translate(-218.346 -343.999)" fill="#29339b"/>
  <path id="Path_991" data-name="Path 991" d="M182.237,373.118h2.191a.647.647,0,1,0,0-1.294h-2.191a.647.647,0,1,0,0,1.294Zm0,0" transform="translate(-168.001 -343.999)" fill="#29339b"/>
  <path id="Path_992" data-name="Path 992" d="M191.943,397.766h-9.706a.647.647,0,1,0,0,1.294h9.706a.647.647,0,1,0,0-1.294Zm0,0" transform="translate(-168.001 -368)" fill="#29339b"/>
  <path id="Path_993" data-name="Path 993" d="M319.862,44.077a.647.647,0,1,0,.915-.915l-1.83-1.83a.647.647,0,0,0-.915.915Zm0,0" transform="translate(-294.057 -38.064)" fill="#29339b"/>
  <path id="Path_994" data-name="Path 994" d="M368.771,92.984a.647.647,0,0,0,.915-.915l-1.831-1.83a.647.647,0,1,0-.915.915Zm0,0" transform="translate(-339.306 -83.311)" fill="#29339b"/>
  <path id="Path_995" data-name="Path 995" d="M367.407,44.267a.646.646,0,0,0,.458-.189l1.831-1.83a.647.647,0,0,0-.915-.915l-1.83,1.83a.647.647,0,0,0,.457,1.1Zm0,0" transform="translate(-339.314 -38.064)" fill="#29339b"/>
  <path id="Path_996" data-name="Path 996" d="M423.711,147.647a.646.646,0,0,0,.647.647h2.588a.647.647,0,1,0,0-1.294h-2.588A.646.646,0,0,0,423.711,147.647Zm0,0" transform="translate(-392.004 -135.999)" fill="#29339b"/>
  <path id="Path_997" data-name="Path 997" d="M255.738,131.97a.645.645,0,0,0,.457-.19l.971-.97a.647.647,0,1,0-.915-.915l-.97.97a.647.647,0,0,0,.457,1.1Zm0,0" transform="translate(-236.002 -119.999)" fill="#29339b"/>
  <path id="Path_998" data-name="Path 998" d="M294.839,157.4a.647.647,0,1,0,.915-.915l-.647-.647a.647.647,0,1,0-.915.915Zm0,0" transform="translate(-272.001 -143.999)" fill="#29339b"/>
  <path id="Path_999" data-name="Path 999" d="M260.249,173.13l-.647.647a.647.647,0,1,0,.915.915l.647-.647a.647.647,0,0,0-.915-.915Zm0,0" transform="translate(-240 -159.998)" fill="#29339b"/>
</svg>
