<svg xmlns="http://www.w3.org/2000/svg" width="20" height="20" viewBox="0 0 20 20">
  <g id="Group_100" data-name="Group 100" transform="translate(-425 -7043)">
    <rect id="Rectangle_137" data-name="Rectangle 137" width="20" height="20" rx="3" transform="translate(425 7043)" fill="#da3c0d"/>
    <path id="Fork_Spoon_-_Orange" data-name="Fork Spoon - Orange" d="M1111.194,1633.2a2.138,2.138,0,0,0-1.975.191,4.919,4.919,0,0,0-1.822,2.328,3.324,3.324,0,0,0,.039,3.229c.166.375.407.589.212.967l-2.568,5.392-2.56-5.376c-.195-.378.027-.584.225-.933.371-.766.484-1.233-.445-3.105l-1.43-2.621a.4.4,0,0,0-.512-.171.318.318,0,0,0-.2.4.331.331,0,0,0,.022.05l1.315,2.9c.135.327.059.511-.137.593s-.381,0-.516-.322l-1.25-2.925a.353.353,0,0,0-.657.261l0,.01,1.184,2.952c.135.326.058.511-.137.592s-.38,0-.516-.322l-1.12-2.979a.32.32,0,0,0-.4-.218.316.316,0,0,0-.065.027.373.373,0,0,0-.224.475l.842,2.864c.667,1.98,1.077,2.231,1.881,2.51.388.107.69.1.82.5l2.747,7.737a1.17,1.17,0,0,0,2.24,0l2.753-7.753c.129-.405.451-.387.833-.533a3.324,3.324,0,0,0,2.311-2.256,4.994,4.994,0,0,0,.322-2.878A2.117,2.117,0,0,0,1111.194,1633.2Z" transform="translate(-670.075 5411.954)" fill="#fff"/>
  </g>
</svg>
