<svg xmlns="http://www.w3.org/2000/svg" width="80" height="86.167" viewBox="0 0 80 86.167">
  <path id="Fork_Spoon_-_Orange" data-name="Fork Spoon - Orange" d="M1170.6,1633.894a11.514,11.514,0,0,0-10.638,1.031c-4.262,2.548-7.708,7.454-9.813,12.538-3.714,8.966-1.788,13.266.212,17.391.9,2.018,2.189,3.172,1.139,5.209l-13.828,29.04-13.788-28.954c-1.05-2.036.144-3.147,1.211-5.027,2-4.123,2.6-6.641-2.395-16.723l-7.7-14.113a2.127,2.127,0,0,0-2.758-.921,1.713,1.713,0,0,0-.933,2.45l7.082,15.606c.728,1.758.316,2.754-.738,3.19s-2.049.026-2.777-1.733l-6.73-15.751a1.9,1.9,0,1,0-3.537,1.4c.007.018.014.035.022.053l6.378,15.9c.728,1.758.314,2.754-.738,3.19s-2.049.024-2.777-1.734l-6.032-16.042a1.723,1.723,0,0,0-2.136-1.175,1.745,1.745,0,0,0-.351.145,2.011,2.011,0,0,0-1.206,2.559l4.536,15.425c3.59,10.665,5.8,12.016,10.131,13.519,2.092.574,3.717.52,4.415,2.7l14.793,41.664a6.3,6.3,0,0,0,12.064,0l14.827-41.75c.7-2.183,2.428-2.084,4.488-2.873,4.33-1.5,8.732-3.18,12.448-12.148a26.9,26.9,0,0,0,1.736-15.5A11.4,11.4,0,0,0,1170.6,1633.894Z" transform="translate(-1097.648 -1633.046)" fill="#c8dcef"/>
</svg>
