<svg xmlns="http://www.w3.org/2000/svg" width="21.725" height="12.673" viewBox="0 0 21.725 12.673">
  <g id="Icon_ionic-ios-menu" data-name="Icon ionic-ios-menu" transform="translate(-4.5 -10.125)">
    <path id="Path_106" data-name="Path 106" d="M25.319,11.935H5.405A.908.908,0,0,1,4.5,11.03h0a.908.908,0,0,1,.905-.905H25.319a.908.908,0,0,1,.905.905h0A.908.908,0,0,1,25.319,11.935Z"/>
    <path id="Path_107" data-name="Path 107" d="M25.319,18.685H5.405A.908.908,0,0,1,4.5,17.78h0a.908.908,0,0,1,.905-.905H25.319a.908.908,0,0,1,.905.905h0A.908.908,0,0,1,25.319,18.685Z" transform="translate(0 -1.319)"/>
    <path id="Path_108" data-name="Path 108" d="M25.319,25.435H5.405A.908.908,0,0,1,4.5,24.53h0a.908.908,0,0,1,.905-.905H25.319a.908.908,0,0,1,.905.905h0A.908.908,0,0,1,25.319,25.435Z" transform="translate(0 -2.638)"/>
  </g>
</svg>
