<svg xmlns="http://www.w3.org/2000/svg" width="27.626" height="22.618" viewBox="0 0 27.626 22.618">
  <path fill="currentColor" id="XMLID_827_" d="M27,30.707a10.472,10.472,0,0,1-1.336.487,5.906,5.906,0,0,0,1.2-2.115.446.446,0,0,0-.652-.519A10.515,10.515,0,0,1,23.1,29.789a5.933,5.933,0,0,0-10.082,4.239,6.049,6.049,0,0,0,.049.766A15.183,15.183,0,0,1,2.65,29.265a.446.446,0,0,0-.73.057,5.939,5.939,0,0,0,.608,6.826,5.023,5.023,0,0,1-.794-.354.446.446,0,0,0-.662.379c0,.026,0,.053,0,.079a5.951,5.951,0,0,0,2.9,5.1c-.151-.015-.3-.037-.451-.065a.446.446,0,0,0-.508.574A5.928,5.928,0,0,0,7.36,45.835a10.492,10.492,0,0,1-5.608,1.6A10.729,10.729,0,0,1,.5,47.362.446.446,0,0,0,.2,48.18a15.993,15.993,0,0,0,8.648,2.535,15.386,15.386,0,0,0,11.92-5.236A16.6,16.6,0,0,0,24.9,34.664c0-.163,0-.327-.007-.491a11.529,11.529,0,0,0,2.653-2.81A.446.446,0,0,0,27,30.707Z" transform="translate(0.002 -28.097)" fill="#fff"/>
</svg>
