<svg xmlns="http://www.w3.org/2000/svg" width="167" height="167" viewBox="0 0 167 167">
  <g id="Layer_2" data-name="Layer 2" transform="translate(-877.999 -388)">
    <g id="Layer_1" data-name="Layer 1" transform="translate(878 388)">
      <path id="Path_149" data-name="Path 149" d="M190.036,439.157A17.091,17.091,0,1,1,206.964,421.9,17.091,17.091,0,0,1,190.036,439.157Zm0-22.775a5.683,5.683,0,1,0,5.561,5.52A5.683,5.683,0,0,0,190.036,416.383Z" transform="translate(-157.326 -368.748)" fill="#1050cc"/>
      <path id="Path_150" data-name="Path 150" d="M95.52,871.543a5.724,5.724,0,0,1-5.724-5.724V848.768a17.091,17.091,0,1,0-34.142,0v17.051a5.724,5.724,0,1,1-11.408,0V848.768a28.622,28.622,0,1,1,56.958,0v17.051a5.724,5.724,0,0,1-5.684,5.724Z" transform="translate(-40.157 -744.175)" fill="#1050cc"/>
      <path id="Path_151" data-name="Path 151" d="M190.036,439.157A17.091,17.091,0,1,1,206.964,421.9,17.091,17.091,0,0,1,190.036,439.157Zm0-22.775a5.683,5.683,0,1,0,5.561,5.52A5.683,5.683,0,0,0,190.036,416.383Z" transform="translate(-157.326 -368.748)" fill="#1050cc"/>
      <path id="Path_152" data-name="Path 152" d="M95.52,871.543a5.724,5.724,0,0,1-5.724-5.724V848.768a17.091,17.091,0,1,0-34.142,0v17.051a5.724,5.724,0,1,1-11.408,0V848.768a28.622,28.622,0,1,1,56.958,0v17.051a5.724,5.724,0,0,1-5.684,5.724Z" transform="translate(-40.157 -744.175)" fill="#1050cc"/>
      <path id="Path_153" data-name="Path 153" d="M1336.05,439.158a17.091,17.091,0,1,1,12.25-5.005A17.091,17.091,0,0,1,1336.05,439.158Zm0-22.775a5.683,5.683,0,1,0,5.847,5.52A5.684,5.684,0,0,0,1336.05,416.383Z" transform="translate(-1201.118 -368.748)" fill="#1050cc"/>
      <path id="Path_154" data-name="Path 154" d="M1241.4,871.542a5.724,5.724,0,0,1-5.724-5.724v-17.05a17.091,17.091,0,1,0-34.142,0v17.051a5.724,5.724,0,1,1-11.408,0V848.767a28.622,28.622,0,1,1,56.958,0v17.051a5.724,5.724,0,0,1-5.684,5.724Z" transform="translate(-1083.533 -744.175)" fill="#1050cc"/>
      <path id="Path_155" data-name="Path 155" d="M493.473,45.878a5.765,5.765,0,0,1-4.089-1.676c-13.248-13.084-41.338-13.084-54.627,0a5.783,5.783,0,0,1-8.178-8.178c17.5-17.255,53.155-17.255,70.655,0a5.684,5.684,0,0,1,0,8.178,5.6,5.6,0,0,1-4.089,1.717Z" transform="translate(-386.877 -21.017)" fill="#1050cc"/>
      <path id="Path_156" data-name="Path 156" d="M1018.429,46.433h-17.091a5.724,5.724,0,1,1,0-11.408H1012.7V23.658a5.724,5.724,0,1,1,11.408,0V40.749A5.683,5.683,0,0,1,1018.429,46.433Z" transform="translate(-906.109 -15.889)" fill="#1050cc"/>
      <path id="Path_157" data-name="Path 157" d="M560.4,1487.108h17.05a5.724,5.724,0,1,1,0,11.408H566.086v11.367a5.724,5.724,0,1,1-11.408,0v-17.091A5.724,5.724,0,0,1,560.4,1487.108Z" transform="translate(-505.04 -1354.057)" fill="#1050cc"/>
      <path id="Path_158" data-name="Path 158" d="M657.787,1572.576a50.621,50.621,0,0,1-35.123-12.962,5.782,5.782,0,0,1,8.178-8.178c13.248,13.125,41.379,13.125,54.627,0a5.783,5.783,0,0,1,8.178,8.178,50.621,50.621,0,0,1-35.328,12.962Z" transform="translate(-565.42 -1411.107)" fill="#1050cc"/>
      <rect id="Rectangle_380" data-name="Rectangle 380" width="167" height="167" transform="translate(-0.001)" fill="none"/>
    </g>
  </g>
</svg>
