<svg xmlns="http://www.w3.org/2000/svg" width="167" height="167" viewBox="0 0 167 167">
  <g id="Group_383" data-name="Group 383" transform="translate(-9670 -83)">
    <g id="Layer_2" data-name="Layer 2" transform="translate(9670 83)">
      <g id="Layer_1" data-name="Layer 1">
        <g id="Layer_1-2" data-name="Layer_1" transform="translate(2.434 15.606)">
          <path id="Path_147" data-name="Path 147" d="M78.171,506.945H139.44c.528-7.395,0-30.066.528-34.819a22.062,22.062,0,0,1,5.891-11.051c.528-.528.528-1.056,1.056-1.056a1.828,1.828,0,0,1,.528-1.056c.528-.528.528-1.056,1.056-1.585l5.851-5.81a35.024,35.024,0,0,1,4.063-4.063c.569-1.016,1.1-1.016,2.153-2.072,2.113-2.113,4.063-4.754,6.379-6.866,1.625-1.056,14.952-17.389,18.649-21.087.528-1.056,1.1-1.585,1.625-2.641a11.092,11.092,0,0,0-16.536-14.789l-4.266,4.063c-2.113,2.641-8.126,9.507-10.117,12.189l-1.056,1.056-5.322,5.769a73.131,73.131,0,0,1-8.532,8.979c-4.266,3.7-7.476,2.641-14.952,2.641h-44c-5.322,0-7.476-3.169-10.645-6.866a35.507,35.507,0,0,1-4.063-4.754c-.569,0-.569-.528-1.1-1.016l-3.9-4.266c-.569-.528-1.1-1.056-1.1-1.585l-6.379-6.866L54.2,408.337l-2.153-2.682c-3.169-3.169-4.794-7.395-10.645-8.938-10.117-3.25-18.121,8.938-11.742,17.958l26.653,30.066a9.386,9.386,0,0,0,2.682,2.113c1.585,1.544,2.641,3.128,4.063,4.713a81.267,81.267,0,0,1,6.582,6.907l2.153,2.113a24.377,24.377,0,0,1,5.973,11.539C78.171,475.822,77.764,501.135,78.171,506.945Zm39.41-34.819a35.064,35.064,0,0,0,4.876-2.6,31.082,31.082,0,0,0,4.794-3.7l1.585-1.585c1.056-1.056,1.585-1.056,2.113-2.113,8.126-10.564-2.113-18.974-9.06-15.8-3.169,1.544-2.641,2.6-4.266,3.657-1.056-1.056-1.585-2.641-3.7-3.657a15.439,15.439,0,0,0-6.948,0c-7.435,3.128-6.379,13.692,1.625,19.5a7.273,7.273,0,0,0,2.113,1.585Z" transform="translate(-27.38 -376.569)" fill="#1050cc" fill-rule="evenodd"/>
          <path id="Path_148" data-name="Path 148" d="M669.183,175.679a26.518,26.518,0,1,0,28.766,23.809A26.518,26.518,0,0,0,669.183,175.679Z" transform="translate(-590.155 -175.561)" fill="#1050cc" fill-rule="evenodd"/>
        </g>
        <rect id="Rectangle_379" data-name="Rectangle 379" width="167" height="167" fill="none"/>
      </g>
    </g>
  </g>
</svg>
