<svg xmlns="http://www.w3.org/2000/svg" viewBox="0 0 873.66 1226.4"><defs><style>.cls-1{fill:#fff;}.cls-2{fill:#00a0bf;}.cls-3{isolation:isolate;}</style></defs><title>Full-logo-White-Svg</title><g id="Layer_2" data-name="Layer 2"><g id="Layer_1-2" data-name="Layer 1"><g id="Layer_1-2-2" data-name="Layer 1-2"><path class="cls-1" d="M634.4,598.8c-50.7-140.6-156.9-253-132-272.3l-.4-.4c19.3-2.6,39.2-9.9,52.8-30.1,22.2-32.8,35.4-78.7,10-95.9s-74.8.8-97,33.6c-12.5,18.6-20.8,38-22.6,54.4-3.3,28.9,13.1,55.3,20,67.1,58,100.4,93.4,154.5,121.8,236,5.4,15.4,33.2,115.2-20.2,184.1-24.3,31.4-67.7,65.4-142.4,71.2-23,1.8-67.4-8.9-67.4-8.9h0C288.2,822,235.3,788,235.3,788c-75.9-48.7-112-113.4-126.3-139.7C90.4,614.1,57.2,541.7,59.9,445.8c1-39.2,10.1-156.6,103.6-257.6C258.3,85.6,376.6,63.4,407.4,59.9c6.9-5.3,17.1-6.9,30.1-13.3,55.8-27.5,117-20,144.5-14.1A430.94,430.94,0,0,0,458.4,14.4c-237.8,0-428.6,179-441.1,430.5C7,651.9,190.3,863.8,357,880.2h0s56.4,7.4,104,1.1c24.2-3.2,104.5-33.7,149.5-102.3C665.6,694.9,644.7,627.5,634.4,598.8Z" transform="translate(-16.88 -14.4)"/><path class="cls-2" d="M484.5,886.6c-4.2.6-9.2,1.4-16,2.6C474.4,888.4,479.5,887.6,484.5,886.6Z" transform="translate(-16.88 -14.4)"/><path class="cls-2" d="M758.2,204.1c74.7,88.9,83,187.8,85.4,222,2.1,30.5,7,115.3-40,204.1C771,692,726.9,730,705.4,748.3a440.61,440.61,0,0,1-83.8,56,616,616,0,0,1-57.4,45.8c-16.7,11.7-30.6,19.7-40.2,23.8-16.1,6.8-27.4,10.4-39.5,12.8l4.6-.6c14.6-1.6,25.7-2.1,27.9-2.2h.3c95.3-3.4,194.7-77,194.7-77C746.5,781.3,863.3,687,886.5,533.2c6.3-41.5,3.8-74.9,2-98.5-2.9-37.4-10.7-123.7-66-213.8C760.4,119.6,664.8,56.8,599.4,43.7c-13.1-2.6-26.4-3.9-26.4-3.9-64.5-6-114.8,14.4-130.6,21.1C419.7,70.4,350,98.5,314.2,168.5c-39.7,77.5-23.7,151.6-13.4,180.3,50.7,140.6,151.6,253,126.7,272.3l.4.4c-19.3,2.6-39.2,15.2-52.9,35.4-22.2,32.8-24.8,73.4.7,90.6s64.1,4.5,86.3-28.3c12.6-18.6,20.8-38,22.6-54.4,3.3-28.9-13.1-60.6-20-72.4-58-100.4-78.5-146.7-121.9-236-16.1-33.2-31.9-114.3,9.6-184.1,45.5-76.4,136.2-90.6,150.2-92.5C637.8,61,738.5,180.7,758.2,204.1Z" transform="translate(-16.88 -14.4)"/><g class="cls-3"><path class="cls-1" d="M78.9,1087.4H116v28.8H77.7v86.3H48.9V1097.1a68.41,68.41,0,0,1,.6-9.1v-.3a63.81,63.81,0,0,1,19-38Q88.15,1030,116,1030.1v28.8a36.84,36.84,0,0,0-27.1,11.2A34.59,34.59,0,0,0,78.9,1087.4Z" transform="translate(-16.88 -14.4)"/><path class="cls-1" d="M221.3,1199.8a69.21,69.21,0,0,1-19,2.5q-27.9,0-47.5-19.6t-19.6-47.5q0-27.9,19.6-47.5t47.5-19.6q27.9,0,47.5,19.6t19.6,47.5v67.1H240.6v-68.2a38.26,38.26,0,0,0-38.3-37.3,38.3,38.3,0,1,0,19,71.7v31.3Zm.2-64.5a19.12,19.12,0,1,1-5.6-13.6A18.81,18.81,0,0,1,221.5,1135.3Z" transform="translate(-16.88 -14.4)"/><path class="cls-1" d="M317.3,1068.2v134.2H288.5V1068.2Zm19.2,0q27.9,0,47.5,19.6t19.6,47.5v67.1H374.8v-67.1a38.24,38.24,0,0,0-38.3-38.3Z" transform="translate(-16.88 -14.4)"/></g><g class="cls-3"><path class="cls-2" d="M470.9,1168.7a38.37,38.37,0,1,0-8.1-60.5,36.68,36.68,0,0,0-11.2,26.1v106.5H422.8V1135.4q0-27.9,19.6-47.5t47.5-19.6q27.9,0,47.5,19.6t19.6,47.5q0,27.9-19.6,47.5t-47.5,19.6a69.21,69.21,0,0,1-19-2.5v-31.3Zm5.5-47a19.31,19.31,0,1,1-5.6,13.6A18,18,0,0,1,476.4,1121.7Z" transform="translate(-16.88 -14.4)"/><path class="cls-2" d="M662.3,1199.8a69.21,69.21,0,0,1-19,2.5q-27.9,0-47.5-19.6t-19.6-47.5q0-27.9,19.6-47.5t47.5-19.6q27.9,0,47.5,19.6t19.6,47.5v67.1H681.6v-68.2a38.33,38.33,0,1,0-38.3,39.3,37.11,37.11,0,0,0,19-4.9Zm.2-64.5a19.12,19.12,0,1,1-5.6-13.6A18.81,18.81,0,0,1,662.5,1135.3Z" transform="translate(-16.88 -14.4)"/><path class="cls-2" d="M815.7,1101.9a38.37,38.37,0,1,0,8.1,60.5,36.68,36.68,0,0,0,11.2-26.1V1029.8h28.8v105.4q0,27.9-19.6,47.5t-47.5,19.6q-27.9,0-47.5-19.6t-19.6-47.5q0-27.9,19.6-47.5t47.5-19.6a69.21,69.21,0,0,1,19,2.5Zm-5.5,46.9a19.31,19.31,0,1,1,5.6-13.6A18.11,18.11,0,0,1,810.2,1148.8Z" transform="translate(-16.88 -14.4)"/></g></g></g></g></svg>