<svg id="Layer_2" data-name="Layer 2" xmlns="http://www.w3.org/2000/svg" width="167" height="167" viewBox="0 0 167 167">
  <g id="Layer_1" data-name="Layer 1" transform="translate(0)">
    <path id="Path_159" data-name="Path 159" d="M146.641,1.6V128.867H105.968V113.329h24.16V18.113H19.5v95.216H43.616v15.537H2.942V2.535a6.671,6.671,0,0,1,0-.935Z" transform="translate(8.974 4.908)" fill="#1050cc"/>
    <path id="Path_160" data-name="Path 160" d="M78.359,39.02c-.895,2.969-1.79,5.9-2.725,8.867a22.333,22.333,0,0,1-.854,2.074A8.623,8.623,0,0,1,66.646,55.7H28.25V34.18H74.984c1.708,0,2.847.447,3.376,2.115Z" transform="translate(86.651 104.841)" fill="#1050cc"/>
    <path id="Path_161" data-name="Path 161" d="M50.721,34.18V55.9H15.864a36.931,36.931,0,0,1-4.759-.366,7.565,7.565,0,0,1-6.386-4.8c-1.139-2.766-2.034-5.694-2.928-8.582C1.3,40.484.978,38.735.653,36.986s.285-2.6,2.2-2.766H50.721Z" transform="translate(1.747 104.841)" fill="#1050cc"/>
    <path id="Path_162" data-name="Path 162" d="M9.94,17H96.493v6.02H12.1c-1.5,0-2.034-.651-2.156-2.156V17Z" transform="translate(30.489 52.144)" fill="#1050cc"/>
    <path id="Path_163" data-name="Path 163" d="M66.139,30.262V38.4c0,.285-.407.61-.691.813a41.08,41.08,0,0,1-14.439,5.532A52.875,52.875,0,0,1,20.585,42.1c-1.952-.813-3.823-1.952-5.735-2.969a1.424,1.424,0,0,1-.61-.854c0-2.644,0-5.288,0-8.135a50.191,50.191,0,0,0,25.99,5.938,50.434,50.434,0,0,0,25.909-5.816Z" transform="translate(43.678 92.449)" fill="#1050cc"/>
    <path id="Path_164" data-name="Path 164" d="M66.144,33.69v8.135a1.464,1.464,0,0,1-.651.935,40.673,40.673,0,0,1-14.52,5.572,52.631,52.631,0,0,1-30.342-2.644A54.75,54.75,0,0,1,14.9,42.719a1.546,1.546,0,0,1-.651-.935c0-2.562,0-5.125,0-7.647a1.83,1.83,0,0,1,0-.325,50.394,50.394,0,0,0,25.868,5.857A50.231,50.231,0,0,0,66.145,33.69Z" transform="translate(43.673 103.338)" fill="#1050cc"/>
    <path id="Path_165" data-name="Path 165" d="M66.262,37v8.135c0,.285-.407.691-.732.895a41.406,41.406,0,0,1-13.3,5.288A52.875,52.875,0,0,1,19.691,48.47a48.44,48.44,0,0,1-4.759-2.562,1.383,1.383,0,0,1-.732-.773V37a49.865,49.865,0,0,0,25.909,5.938A50.11,50.11,0,0,0,66.262,37Z" transform="translate(43.556 113.491)" fill="#1050cc"/>
    <path id="Path_166" data-name="Path 166" d="M10,13.934V8.85H96.268v5.084Z" transform="translate(30.673 27.146)" fill="#1050cc"/>
    <path id="Path_167" data-name="Path 167" d="M23.753,25.87a13.992,13.992,0,0,0,6.386,8.663,18.913,18.913,0,0,0,10.778,2.725A15.985,15.985,0,0,0,56.7,25.911h.569a20.662,20.662,0,0,1,6.67,3.213,4.555,4.555,0,0,1,.325,7.647,15.13,15.13,0,0,1-6.06,3.254A51.086,51.086,0,0,1,44.659,42.1a72.886,72.886,0,0,1-21.191-1.871,21.15,21.15,0,0,1-7.036-3.335,4.555,4.555,0,0,1-.813-7.24A10.209,10.209,0,0,1,21.557,26.4Z" transform="translate(43.52 79.352)" fill="#1050cc"/>
    <path id="Path_168" data-name="Path 168" d="M43.482,34.287a13.015,13.015,0,1,1-3.769-9.242,13.056,13.056,0,0,1,3.769,9.242Zm-8.541-4.474a4.067,4.067,0,0,0-2.806-3.295,4.637,4.637,0,0,1-1.3-.895V25.38H29.572a.971.971,0,0,1-.895,1.139A3.783,3.783,0,0,0,25.79,30.26a4.067,4.067,0,0,0,2.928,4.067c.285,0,.773.366.773.569v3.742c-.569-.244-1.017-.569-1.1-.935-.366-1.18-1.1-1.139-2.034-.895H25.342a4.718,4.718,0,0,0,4.067,4.352v1.708h1.383V41.12l1.139-.366A4.393,4.393,0,0,0,34.9,36.687a4.067,4.067,0,0,0-2.847-4.067h-.407s-.407-.325-.407-.488V28.755h.244l1.139,1.464Z" transform="translate(53.279 64.996)" fill="#1050cc"/>
    <path id="Path_169" data-name="Path 169" d="M79.746,12.9v5.043H12.31V12.9Z" transform="translate(37.758 39.568)" fill="#1050cc"/>
    <path id="Path_170" data-name="Path 170" d="M20.8,24.66c.976.325,1.586.854,1.546,1.871A1.912,1.912,0,0,1,20.8,28.483Z" transform="translate(63.8 75.64)" fill="#1050cc"/>
    <path id="Path_171" data-name="Path 171" d="M21.3,23v3.335a1.627,1.627,0,0,1-1.18-1.464A1.79,1.79,0,0,1,21.3,23Z" transform="translate(61.676 70.548)" fill="#1050cc"/>
    <rect id="Rectangle_381" data-name="Rectangle 381" width="167" height="167" transform="translate(0)" fill="none"/>
  </g>
</svg>
