<?xml version="1.0" encoding="utf-8"?>
<!-- Generator: Adobe Illustrator 23.0.1, SVG Export Plug-In . SVG Version: 6.00 Build 0)  -->
<svg version="1.1" id="Layer_1" xmlns="http://www.w3.org/2000/svg" xmlns:xlink="http://www.w3.org/1999/xlink" x="0px" y="0px"
	 viewBox="0 0 31 31" style="enable-background:new 0 0 31 31;" xml:space="preserve">
<style type="text/css">
	.st0{fill:#FFFFFF;}
	.st1{fill:none;}
</style>
<title>3_8</title>
<g>
	<g id="Layer_1-2">
		<path class="st0" d="M15.4,30.5c-8.3,0-15-6.8-14.9-15.1c0-8.3,6.8-15,15.1-14.9s15,6.8,14.9,15.1c0,0.1,0,0.2,0,0.2
			C30.3,24,23.6,30.5,15.4,30.5z M4.9,22.5c2.6,1.7,5.8,2.3,8.8,1.7c6-1,10.5-6.3,10.5-12.4c0.1-0.4,0.2-0.7,0.5-1
			c0.5-0.6,1-1.1,1.6-1.6L26.1,9l-1.9,0.5l1.6-2.1c-0.6,0.1-1.2,0.2-1.7,0.5c-0.6,0.3-1.4,0.2-1.9-0.2c-1.7-1.3-4.1-1.1-5.6,0.4
			c-1.1,1.1-1.6,2.7-1.4,4.2c-3.5-0.2-6.8-1.9-9.1-4.6c-1.1,2.3-0.6,4.2,1.3,6L5.5,13c0,2,1.3,3.7,3.1,4.5H7.1
			c0.6,1.7,2.2,2.9,4,3.1C9.3,21.9,7.1,22.6,4.9,22.5z"/>
		<rect class="st1" width="31" height="31"/>
	</g>
</g>
</svg>
